<?xml version="1.0" encoding="UTF-8" standalone="no"?>
<!-- Created with Inkscape (http://www.inkscape.org/) -->

<svg
   width="49.396969mm"
   height="49.439362mm"
   viewBox="0 0 49.396969 49.439362"
   version="1.1"
   id="svg1"
   xml:space="preserve"
   xmlns:xlink="http://www.w3.org/1999/xlink"
   xmlns="http://www.w3.org/2000/svg"
   xmlns:svg="http://www.w3.org/2000/svg"><defs
     id="defs1"><linearGradient
       id="linearGradient10"><stop
         style="stop-color:#000000;stop-opacity:1;"
         offset="0"
         id="stop10" /><stop
         style="stop-color:#000000;stop-opacity:0.49803922;"
         offset="0.15714286"
         id="stop12" /><stop
         style="stop-color:#000000;stop-opacity:0;"
         offset="1"
         id="stop11" /></linearGradient><linearGradient
       id="linearGradient22"><stop
         style="stop-color:#ff0000;stop-opacity:1;"
         offset="0"
         id="stop22" /><stop
         style="stop-color:#ff0000;stop-opacity:0;"
         offset="1"
         id="stop23" /></linearGradient><linearGradient
       xlink:href="#linearGradient22"
       id="linearGradient20"
       x1="56.94743"
       y1="129.29443"
       x2="25.114746"
       y2="129.39778"
       gradientUnits="userSpaceOnUse" /><linearGradient
       xlink:href="#linearGradient22"
       id="linearGradient23"
       x1="182.63069"
       y1="123.50775"
       x2="198.70863"
       y2="123.80008"
       gradientUnits="userSpaceOnUse" /><meshgradient
       id="meshgradient31"
       gradientUnits="userSpaceOnUse"
       x="32.84602"
       y="123.48304"
       gradientTransform="matrix(8.8809103,0,0,7.7101991,-226.38216,-748.29263)"><meshrow
         id="meshrow922"><meshpatch
           id="meshpatch922"><stop
             path="c 7.89281,7.52738  8.15288,-6.33333  15.3152,-6.33333"
             style="stop-color:#ffffff;stop-opacity:1"
             id="stop922" /><stop
             path="c 0,3.53227  0,7.06455  0,10.5968"
             style="stop-color:#ff0000;stop-opacity:1"
             id="stop923" /><stop
             path="c -13.0816,-4.64068  -14.324,0  -21.486,0"
             style="stop-color:#ffffff;stop-opacity:1"
             id="stop924" /><stop
             path="c 0,-3.53227  6.17123,-0.731227  6.1708,-4.26347"
             style="stop-color:#ff0000;stop-opacity:1"
             id="stop925" /></meshpatch></meshrow></meshgradient><clipPath
       clipPathUnits="userSpaceOnUse"
       id="clipPath1421"><g
         id="use1421"><circle
           style="display:inline;fill:#ffffff;stroke-width:1.86065;image-rendering:auto"
           id="circle1"
           cx="104.58697"
           cy="148.47774"
           r="104.71848" /></g></clipPath><linearGradient
       xlink:href="#linearGradient10"
       id="linearGradient11"
       x1="-19.84375"
       y1="259.70676"
       x2="-19.84375"
       y2="5.3743491"
       gradientUnits="userSpaceOnUse" /></defs><g
     id="layer1"
     transform="translate(-155.17487,-47.580385)"><g
       id="g12"><g
         id="g24"
         style="display:inline"
         transform="matrix(0.72011835,0,0,0.72011835,-32.030154,10.294895)"><path
           id="path26"
           style="fill:#666666;stroke-width:1.873"
           d="m 104.99975,105.68421 a 42.815773,42.815773 0 0 0 -42.81547,42.81599 42.815773,42.815773 0 0 0 42.81547,42.81547 42.815773,42.815773 0 0 0 42.816,-42.81547 42.815773,42.815773 0 0 0 -42.816,-42.81599 z" /><path
           id="rect26"
           style="fill:#ffffff;stroke-width:1.45771"
           d="m 104.99991,120.42333 -28.07651,28.07651 28.07679,28.07679 28.07651,-28.07651 z m 2.9e-4,3.49484 10.54312,10.54313 -10.54341,10.54341 -10.543122,-10.54313 z m -2.9e-4,28.07737 10.54313,10.54312 -10.54313,10.54313 -10.543123,-10.54313 z" /><path
           id="path30"
           style="fill:#666666;stroke-width:2.39238"
           d="m 103.93759,97.201488 c -11.984276,0.26145 -23.927552,4.857162 -32.952505,12.893702 -6.354174,5.6439 -11.274336,12.88636 -14.189457,20.86873 -1.781959,4.91478 -2.850757,10.28647 -3.042311,15.53759 -0.446006,10.65775 2.613489,21.52247 8.535892,30.39883 4.802246,7.22842 11.450146,13.21364 19.199752,17.16536 8.038497,4.16756 17.196112,6.15827 26.240219,5.64245 8.469,-0.4389 16.86978,-3.03898 24.13421,-7.52256 7.39369,-4.5327 13.67857,-11.02567 17.88859,-18.65089 2.4664,-4.39932 4.24825,-9.12138 5.35636,-14.06 0.62706,-2.84731 1.02915,-5.92144 1.14814,-8.85406 0.42177,-10.11763 -2.1716,-20.32762 -7.52967,-28.95204 -5.52598,-9.05118 -13.92097,-16.32953 -23.71884,-20.40938 -6.65596,-2.806981 -13.85803,-4.234204 -21.07038,-4.057732 z m 1.10691,5.501152 c 15.70223,-0.0726 31.17082,8.60502 39.16339,22.14364 7.5378,12.40677 8.72486,28.51053 2.8112,41.80532 -5.14332,11.92971 -15.54663,21.54697 -27.9835,25.41837 -11.54848,3.73288 -24.599885,2.69824 -35.319327,-3.04387 -10.720145,-5.60562 -19.093381,-15.60832 -22.514739,-27.23385 -3.385393,-11.0541 -2.406312,-23.40171 2.837797,-33.72223 5.089108,-10.25824 14.155205,-18.51355 24.936264,-22.42707 5.123367,-1.9294 10.595165,-2.92602 16.068915,-2.94031 z" /></g><g
         id="g6"
         style="display:inline"><path
           id="text5"
           style="font-size:23.6843px;font-family:ABSTER;-inkscape-font-specification:ABSTER;letter-spacing:-7.54063px;word-spacing:0px;fill:#000000;stroke-width:0.165044;stroke-dasharray:none"
           d="m 77.564952,213.09156 c -5.826331,0 -10.515637,4.6186 -10.515637,10.61073 0,6.03949 4.689306,10.63397 10.515637,10.63397 1.49211,0 2.913042,-0.23652 4.191993,-0.75757 l -0.06098,-0.19534 c 1.336819,0.60822 2.819166,0.95291 4.386296,0.95291 5.802648,0 10.539408,-4.59448 10.539408,-10.63397 0,-6.01581 -4.73676,-10.61073 -10.539408,-10.61073 -1.481301,0 -2.889719,0.30299 -4.168738,0.84905 -1.324032,-0.56582 -2.81263,-0.84905 -4.348572,-0.84905 z m 31.749998,0 c -5.82633,0 -10.515635,4.6186 -10.515635,10.61073 0,6.03949 4.689305,10.63397 10.515635,10.63397 0.41352,0 0.82003,-0.0225 1.22111,-0.0599 l -0.0248,0.0599 h 8.63398 l 0.74477,-15.27607 0.0476,-0.16588 0.0238,0.0238 v -0.0238 l 0.0475,0.16588 6.29987,15.27607 h 3.10266 l -8.50284,-20.7238 h -1.89446 l -7.31532,17.82992 c -0.79997,0.23735 -1.62571,0.35967 -2.38383,0.35967 -4.59475,0 -7.46052,-4.19186 -7.46052,-8.09976 0,-4.23949 3.17367,-8.05274 7.46052,-8.05274 1.08948,0 2.17914,0.21335 3.15019,0.61598 l 1.20768,-2.3213 c -1.32632,-0.56843 -2.81839,-0.85267 -4.35787,-0.85267 z m -31.749998,2.55799 c 0.495894,0 0.990636,0.0498 1.475363,0.13591 -2.12793,1.9184 -3.47369,4.71152 -3.47369,7.91683 0,3.22648 1.352946,6.03147 3.490743,7.953 -0.508464,0.0931 -1.014641,0.14676 -1.492416,0.14676 -4.594749,0 -7.460526,-4.19186 -7.460526,-8.09976 0,-4.23949 3.173673,-8.05274 7.460526,-8.05274 z m 8.51731,0 c 4.357907,0 7.460527,3.86062 7.460527,8.05274 0,4.23948 -3.055252,8.09976 -7.460527,8.09976 -4.357907,0 -7.460527,-3.86028 -7.460527,-8.09976 0,-4.19212 3.10262,-8.05274 7.460527,-8.05274 z m -8.51731,27.04744 c -5.826331,0 -10.515637,4.6186 -10.515637,10.61072 0,6.0395 4.689306,10.63398 10.515637,10.63398 1.49211,0 2.913042,-0.23652 4.191993,-0.75758 l -0.06098,-0.19533 c 1.336819,0.60822 2.819166,0.95291 4.386296,0.95291 5.802648,0 10.539408,-4.59448 10.539408,-10.63398 0,-6.0158 -4.73676,-10.61072 -10.539408,-10.61072 -1.481301,0 -2.889719,0.30298 -4.168738,0.84905 -1.324032,-0.56582 -2.81263,-0.84905 -4.348572,-0.84905 z m 21.234363,0.5209 v 20.7238 h 13.499945 l 5.53133,-0.0858 0.70964,-15.19029 0.0475,-0.16588 0.0233,0.0238 v -0.0238 l 0.0475,0.16588 6.29987,15.27607 h 3.10265 l -8.50232,-20.7238 h -1.89498 l -7.46259,18.18959 -8.34677,-18.18959 z m -21.234363,2.03709 c 0.495894,0 0.990636,0.0498 1.475363,0.13591 -2.12793,1.9184 -3.47369,4.71152 -3.47369,7.91682 0,3.22649 1.352946,6.03148 3.490743,7.95301 -0.508464,0.0931 -1.014641,0.14676 -1.492416,0.14676 -4.594749,0 -7.460526,-4.19186 -7.460526,-8.09977 0,-4.23948 3.173673,-8.05273 7.460526,-8.05273 z m 8.51731,0 c 4.357907,0 7.460527,3.86062 7.460527,8.05273 0,4.23949 -3.055252,8.09977 -7.460527,8.09977 -4.357907,0 -7.460527,-3.86028 -7.460527,-8.09977 0,-4.19211 3.10262,-8.05273 7.460527,-8.05273 z" /></g><g
         id="g7"
         style="display:none"><path
           style="display:inline;fill:#000000;stroke-width:0.484067"
           d="m 169.98064,259.90422 c -0.53612,-0.19131 -0.8633,-0.42424 -0.8633,-0.61462 0,-0.0693 0.38903,-0.5432 0.86452,-1.05318 0.83115,-0.89145 3.16848,-4.24229 3.97989,-5.70563 0.47323,-0.85345 1.20573,-2.66184 1.40858,-3.47751 0.22875,-0.91977 0.41267,-2.37819 0.32781,-2.59934 -0.10913,-0.28438 -0.60366,-0.24574 -1.30191,0.10174 -0.87856,0.43721 -3.36702,1.38472 -5.79119,2.20507 -1.1623,0.39333 -2.3447,0.84948 -2.62758,1.01368 -0.62844,0.36479 -2.56772,0.89666 -4.01794,1.10197 -1.24621,0.17643 -3.39449,0.0907 -4.635,-0.18498 -3.45992,-0.76888 -7.06136,-3.52891 -8.5463,-6.54962 -1.71614,-3.491 -1.98115,-7.23473 -0.84159,-11.88876 0.51287,-2.09457 0.92228,-3.0207 2.35956,-5.33748 1.9459,-3.13664 4.51422,-5.36199 7.22622,-6.26128 1.05297,-0.34916 1.42184,-0.40931 2.54173,-0.41451 1.47552,-0.007 2.51345,0.15168 3.9245,0.59938 1.09374,0.34703 2.71001,1.25278 3.24654,1.81936 l 0.35918,0.37928 -1.25571,-0.43885 c -3.49121,-1.22011 -5.78701,-1.23546 -8.2999,-0.0555 -0.87877,0.41264 -2.38899,1.5763 -3.43136,2.64393 -1.70233,1.74359 -3.25962,5.05427 -3.92637,8.34717 -0.46644,2.3036 -0.50788,5.7184 -0.0714,5.88588 0.094,0.0361 0.91071,-0.23243 1.81488,-0.59669 2.71628,-1.0943 10.55786,-4.55385 13.3629,-5.89546 2.86382,-1.36972 7.75666,-3.37283 7.94868,-3.25416 0.0661,0.0409 0.12012,0.66579 0.12012,1.38879 v 1.31455 l -0.99259,0.39496 c -2.37404,0.94465 -3.31505,1.37273 -5.70738,2.59642 -1.39563,0.71386 -3.64336,1.77705 -4.99497,2.36263 -1.35161,0.58559 -3.75425,1.63771 -5.33919,2.33804 -1.58495,0.70034 -3.44365,1.49499 -4.13046,1.76589 -1.03928,0.40992 -1.24874,0.5387 -1.24874,0.76771 0,0.47443 1.30797,2.51652 2.17729,3.39935 1.93404,1.96407 4.12603,2.9968 6.33977,2.98691 1.51934,-0.007 2.29795,-0.23125 7.23631,-2.08616 2.21892,-0.83345 4.98536,-1.84471 6.14765,-2.24725 1.1623,-0.40253 2.17552,-0.78269 2.25162,-0.84479 0.16347,-0.1334 0.45975,-8.41651 0.48523,-13.56562 l 0.0168,-3.39402 -0.54901,-1.33796 c -0.76442,-1.86294 -2.9412,-5.47936 -3.8168,-6.34107 -1.55913,-1.53443 -5.18368,-2.83107 -8.63392,-3.08871 -2.24457,-0.16761 -5.07348,0.4536 -7.67838,1.68613 -3.8797,1.8357 -7.5189,6.3593 -9.17104,11.39976 -1.03573,3.15992 -1.34167,5.54941 -1.10191,8.60631 0.16529,2.10743 0.38227,3.12102 1.22568,5.72544 1.29975,4.01357 3.27599,6.77602 7.16338,10.01314 2.64584,2.20326 5.35994,3.12651 8.06655,2.74397 2.43173,-0.34369 5.11125,-1.67846 6.23478,-3.10581 0.29698,-0.37728 0.58596,-0.70339 0.64218,-0.72469 0.0562,-0.0213 0.5013,0.25246 0.98909,0.60836 0.48778,0.3559 0.94716,0.64709 1.02084,0.64709 0.0737,0 0.20357,0.0839 0.28866,0.1864 0.36582,0.44078 -2.81404,4.27478 -4.23239,5.10305 -0.31115,0.1817 -1.07648,0.47794 -1.70072,0.65832 -1.75813,0.50801 -4.19267,0.44559 -7.44611,-0.19092 -1.36551,-0.26716 -3.09237,-1.0303 -4.7287,-2.08975 -2.15298,-1.39394 -4.99259,-4.16077 -6.61925,-6.44959 -1.19412,-1.68023 -2.59876,-4.48819 -3.25876,-6.5145 -1.01328,-3.1109 -1.14771,-3.82442 -1.33481,-7.08464 -0.24165,-4.21049 0.40109,-7.62939 2.23161,-11.87062 1.775,-4.11258 4.511,-7.44264 8.01052,-9.74982 2.18928,-1.44337 3.96468,-2.21719 6.60199,-2.87751 1.53359,-0.38399 1.81858,-0.4155 3.77218,-0.41713 2.42267,-0.002 3.45597,0.19591 5.65894,1.0841 4.04811,1.63211 6.24328,3.80557 8.64501,8.55953 1.36407,2.7 1.44942,2.9731 1.44942,4.63783 0,1.70698 0.0415,1.74335 1.29777,1.13563 l 0.88809,-0.42963 0.43039,0.23178 c 0.2367,0.12747 0.64034,0.40484 0.89696,0.61637 0.3649,0.30078 0.43518,0.42242 0.3225,0.55819 -0.0792,0.0955 -0.75857,0.41331 -1.50961,0.70628 -0.75104,0.29297 -1.576,0.63944 -1.83324,0.76994 l -0.4677,0.23726 -0.0735,1.3166 c -0.0606,1.08596 -0.23067,7.47738 -0.26327,9.89504 -0.0105,0.77793 0.16951,0.85484 1.08201,0.46229 0.34203,-0.14713 0.64698,-0.26751 0.67767,-0.26751 0.13029,0 0.21806,1.33901 0.13861,2.11451 l -0.0862,0.84094 -0.65745,0.31103 c -1.29298,0.61167 -1.29591,0.61946 -1.42268,3.77771 -0.13348,3.32531 -0.53443,4.57024 -2.33265,7.24276 -1.13999,1.69426 -2.56352,3.16345 -3.50827,3.62079 -0.66454,0.3217 -0.77252,0.32898 -1.42537,0.096 z"
           id="path15" /></g><g
         id="g897"
         transform="translate(-37.168297,5.4829794)"><circle
           style="fill:#000000;fill-opacity:1;stroke-width:0.353999;stroke-dasharray:none"
           id="path892"
           r="29.495369"
           cy="233.03365"
           cx="69.167603" /><circle
           style="fill:#ffffff;fill-opacity:1;stroke-width:0.299328;stroke-dasharray:none"
           id="circle892"
           r="24.940155"
           cy="233.03365"
           cx="69.167603" /><circle
           style="fill:#000000;fill-opacity:1;stroke-width:0.254321;stroke-dasharray:none"
           id="circle893"
           r="21.190121"
           cy="233.03365"
           cx="69.167603" /><rect
           style="fill:#ffffff;fill-opacity:1;stroke-width:0.111112;stroke-dasharray:none"
           id="rect893"
           width="47.563847"
           height="4.6859474"
           x="190.41574"
           y="114.03693"
           transform="rotate(45)" /><rect
           style="fill:#ffffff;fill-opacity:1;stroke-width:0.111112;stroke-dasharray:none"
           id="rect894"
           width="47.563847"
           height="4.6859474"
           x="92.597977"
           y="-216.54063"
           transform="rotate(135)" /><path
           id="rect895"
           style="fill:#ffffff;fill-opacity:1;stroke-width:0.111112;stroke-dasharray:none"
           d="m 96.069301,-224.91712 h 18.018249 v -4.68599 h -13.33226 z"
           transform="rotate(135)" /><path
           id="rect896"
           style="fill:#ffffff;fill-opacity:1;stroke-width:0.111112;stroke-dasharray:none"
           d="m 192.69439,127.09935 4.68598,4.68598 h 14.47453 v -4.68598 z"
           transform="rotate(45)" /><path
           id="path897"
           style="fill:#ffffff;fill-opacity:1;stroke-width:0.353999;stroke-dasharray:none"
           d="m 56.201737,242.33766 a 15.563601,15.563601 0 0 0 12.965617,6.97942 15.563601,15.563601 0 0 0 12.966134,-6.97942 h -6.609416 a 10.686051,10.686051 0 0 1 -6.356718,2.1022 10.686051,10.686051 0 0 1 -6.30039,-2.1022 z" /><rect
           style="fill:#ffffff;fill-opacity:1;stroke-width:0.251377;stroke-dasharray:none"
           id="rect897"
           width="5.2289271"
           height="5.2683344"
           x="66.553139"
           y="205.45932" /></g><g
         id="g8"
         transform="translate(46.2952,154.50753)"><path
           style="font-size:35.2777px;font-family:'Cinzel Decorative';-inkscape-font-specification:'Cinzel Decorative';letter-spacing:-7.54063px;word-spacing:0px;stroke-width:0.354"
           d="m 146.59482,120.7832 c -6.42054,1.37583 -22.51403,4.77479 -25.59393,-5.60916 l -4.30388,-12.1708 c -1.76388,-4.974159 -4.23332,-11.747475 -12.4883,-8.219705 l 0.10583,0.352776 c 3.6336,-1.340552 5.89138,-0.0353 7.40832,2.15194 l -8.71359,20.990229 c -0.74084,1.44639 -1.97556,2.01083 -2.99861,2.01083 h -0.317504 v 0.35278 h 7.090824 v -0.3175 h -0.3175 c -0.91722,0 -1.86972,-0.81139 -1.34055,-2.2225 l 2.43416,-6.31471 h 9.70137 l 1.34055,4.05694 c 4.28854,12.89478 22.45421,7.33776 28.02808,5.29165 z m -38.6114,-10.05415 4.65666,-11.923859 c 0.56444,1.199439 1.05833,2.504719 1.44638,3.704159 l 2.78694,8.2197 z m 11.65044,-14.781349 v 0.35277 h 0.45861 c 1.16416,0 2.22249,0.88195 2.25777,2.2225 v 20.531619 l 4.83304,2.08142 c 5.96193,0 9.98359,-3.06916 9.98359,-7.65526 0,-3.6336 -2.32833,-6.52637 -7.09082,-7.23192 1.69333,-0.635 2.82222,-2.36361 2.82222,-4.58611 0,-3.598319 -2.96333,-5.714979 -7.30248,-5.714979 z m 5.00943,1.16416 h 0.45861 c 3.28082,-0.0353 5.15054,1.34055 5.15054,4.621379 0,3.59833 -2.29305,4.83304 -4.40971,4.83304 v 0.35278 c 3.42194,-0.0353 8.67831,0.9525 8.67831,6.38527 0,3.73943 -2.50471,6.56165 -7.23192,6.56165 -0.91722,0 -1.79917,-0.0706 -2.64583,-0.17639 z m 34.12233,10.336369 c 0,7.93748 -4.93888,12.62941 -11.92387,12.62941 -6.9497,0 -11.57108,-5.2211 -11.57108,-11.88858 0,-6.66749 4.65665,-11.676919 10.93608,-11.676919 4.1275,0 8.32554,2.18722 9.38387,6.314709 h 0.28222 l -0.70555,-4.974159 c -2.18722,-1.44638 -5.82082,-2.39888 -9.03109,-2.39888 -7.76109,0 -13.54664,5.503319 -13.54664,12.805799 0,7.30249 5.82082,12.87636 14.04053,12.87636 7.76109,0 12.77052,-4.5861 12.4883,-13.68774 z"
           id="text897"
           aria-label="ABC" /></g><g
         id="g9"
         transform="translate(-4.6833989,19.293519)"><path
           style="fill:#000000;stroke-width:0.328418"
           d="m 187.41743,159.69198 c -2.18774,-0.25038 -4.3876,-0.72089 -6.15853,-1.31719 -4.90874,-1.65287 -9.11947,-4.53385 -12.17036,-8.32696 -2.58108,-3.20901 -4.20185,-6.39146 -5.17768,-10.1666 -0.59087,-2.28591 -0.81246,-3.94923 -0.88557,-6.6474 -0.18168,-6.70525 1.77547,-12.95299 5.65868,-18.06406 0.92349,-1.2155 2.16822,-2.63388 3.10062,-3.53319 2.35912,-2.27541 5.41496,-4.21101 7.98381,-5.05702 1.93272,-0.63652 2.05249,-0.65191 5.39662,-0.69351 4.37643,-0.0545 4.64458,0.0131 7.19219,1.81112 l 1.24914,0.88161 2.18318,0.68857 c 1.20075,0.37872 2.41779,0.79731 2.70454,0.93021 0.7001,0.32447 1.29332,0.91985 1.63486,1.64081 0.25731,0.54319 0.27663,0.6486 0.27421,1.49673 -0.002,0.80102 -0.0307,0.97305 -0.23302,1.40939 -0.33757,0.72818 -0.90507,1.29051 -1.64787,1.63289 -0.53501,0.2466 -0.74575,0.29349 -1.47744,0.32873 l -0.85343,0.0411 v 1.01285 c 0,1.58883 -0.32875,2.5325 -1.16637,3.34806 -0.57103,0.556 -1.18888,0.89059 -1.93745,1.04921 -0.75412,0.1598 -1.4039,0.15856 -2.09334,-0.004 -0.60488,-0.1426 -3.78174,-1.08852 -7.01613,-2.08908 -1.14957,-0.35562 -2.16623,-0.64656 -2.25924,-0.64653 -0.26136,9e-5 -1.08726,0.69632 -1.66466,1.4033 -1.93202,2.36561 -3.0719,5.03569 -3.68907,8.64135 -0.2764,1.61478 -0.2784,4.27069 -0.004,5.98938 0.72051,4.5213 2.50228,8.22321 5.3457,11.10661 1.01879,1.03311 1.6051,1.49501 2.87543,2.26533 3.34981,2.03126 7.50467,2.62862 11.47929,1.65041 1.33784,-0.32926 2.17497,-0.62625 3.18206,-1.12889 3.51457,-1.75415 6.09273,-4.55879 7.15188,-7.78014 0.49024,-1.49107 0.60985,-2.3165 0.54535,-3.76364 -0.0891,-1.99961 -0.62856,-3.44075 -1.80731,-4.8283 -0.7412,-0.8725 -1.03224,-1.44225 -1.03343,-2.02307 -0.001,-0.58138 0.16451,-0.91641 0.6844,-1.38383 0.81863,-0.73602 1.82522,-0.85948 3.1832,-0.39042 3.31765,1.14594 5.80643,4.198 6.66145,8.1691 0.24918,1.1573 0.2697,3.52601 0.0431,4.96934 -0.62976,4.01044 -2.96621,8.01849 -6.44549,11.05688 -2.49051,2.17492 -4.86159,3.60582 -7.79735,4.70555 -2.00678,0.75173 -4.10176,1.25644 -6.36984,1.53458 -1.59042,0.19504 -5.25359,0.23955 -6.64159,0.0807 z m 6.90573,-5.43166 c 0.79426,-0.11602 0.89532,-0.15145 1.00238,-0.35149 0.12129,-0.22664 0.0111,-1.0002 -0.17534,-1.23039 -0.17878,-0.22079 -0.32748,-0.22663 -1.95667,-0.0769 -0.96845,0.089 -1.45204,0.0905 -2.37158,0.007 -1.38971,-0.12591 -1.44604,-0.10037 -1.53868,0.69784 -0.071,0.61176 -0.0109,0.83921 0.24343,0.92193 0.61646,0.20048 3.5103,0.21965 4.79646,0.0318 z m -7.12088,-0.64439 c 0.131,-0.19994 0.38332,-1.01161 0.38556,-1.2403 0.002,-0.22028 -0.39286,-0.45277 -1.37365,-0.80848 -1.03794,-0.37644 -2.21986,-0.92683 -2.86538,-1.33432 -0.19903,-0.12565 -0.41907,-0.22844 -0.48898,-0.22844 -0.12946,0 -1.04235,1.102 -1.20356,1.4529 -0.12181,0.26513 0.0143,0.40805 0.73385,0.7704 1.16968,0.58904 3.95758,1.59307 4.43642,1.59773 0.15689,0.002 0.28385,-0.0693 0.37574,-0.20949 z m 11.3092,-0.35458 c 0.46834,-0.16814 1.35986,-0.55618 1.98116,-0.86232 1.94352,-0.95767 2.33596,-1.2865 2.12967,-1.78452 -0.15155,-0.36588 -0.48238,-0.69702 -0.69635,-0.69702 -0.10038,0 -0.59727,0.23941 -1.10419,0.53201 -0.98554,0.56887 -1.71862,0.89947 -2.88121,1.29933 -0.40002,0.13758 -0.78127,0.29493 -0.84722,0.34967 -0.31828,0.26415 0.0866,1.46854 0.49366,1.46854 0.0401,0 0.45615,-0.13756 0.92448,-0.30569 z M 180.425,149.53863 c 0.31188,-0.34023 0.58979,-0.70918 0.61758,-0.8199 0.0413,-0.16473 -0.0744,-0.3307 -0.63678,-0.9133 -0.94723,-0.98126 -1.41203,-1.54726 -2.04774,-2.49356 -0.61104,-0.9096 -0.77057,-1.05202 -1.00097,-0.89359 -0.0836,0.0575 -0.52878,0.3399 -0.98921,0.62754 -0.46044,0.28763 -0.85758,0.57619 -0.88254,0.64124 -0.025,0.065 0.0138,0.24054 0.0862,0.38998 0.33187,0.68523 3.30758,3.91772 3.75914,4.08352 0.33776,0.12401 0.48962,0.0377 1.09431,-0.62193 z m 25.01829,-0.69641 c 0.92024,-0.94751 1.69674,-1.94481 1.69674,-2.17922 0,-0.27398 -0.4502,-0.74264 -0.71341,-0.74264 -0.27165,0 -0.37713,0.0883 -1.03827,0.86895 -0.30355,0.35843 -0.7961,0.88249 -1.09455,1.16457 -0.62207,0.58794 -0.68255,0.82817 -0.31768,1.26179 0.17378,0.20652 0.29548,0.26735 0.53489,0.26735 0.27102,0 0.38804,-0.0804 0.93228,-0.6408 z m 3.32549,-4.93105 c 0.15504,-0.3165 0.35055,-0.83792 0.43447,-1.1587 l 0.15258,-0.58326 -0.24381,-0.20988 c -0.28739,-0.2474 -0.58855,-0.26983 -0.77631,-0.0578 -0.0741,0.0836 -0.3149,0.59422 -0.5352,1.13464 -0.31252,0.76665 -0.38113,1.01884 -0.31221,1.14762 0.13076,0.24434 0.35302,0.34808 0.69446,0.32415 0.28221,-0.0198 0.32445,-0.0628 0.58602,-0.59676 z m -33.25819,-0.8031 c 0.72104,-0.39485 1.00674,-0.59758 1.02606,-0.72809 0.0147,-0.0995 -0.18667,-0.72196 -0.44754,-1.38327 -0.55181,-1.39883 -0.84724,-2.31713 -1.05775,-3.28783 -0.23402,-1.07917 -0.279,-1.10264 -1.64217,-0.85703 -1.42147,0.25611 -1.44125,0.26383 -1.44125,0.56222 0,0.67747 0.70211,2.99611 1.41069,4.65862 0.54051,1.26819 0.74468,1.5906 1.004,1.58551 0.0818,-0.002 0.59836,-0.24917 1.14796,-0.55013 z m 34.16198,-3.2829 c 0.17598,-0.17598 0.18342,-0.24227 0.13288,-1.18515 -0.0602,-1.12262 -0.15366,-1.32216 -0.6195,-1.32216 -0.44189,0 -0.48196,0.10471 -0.4805,1.25561 10e-4,1.09414 0.0194,1.17357 0.3028,1.33427 0.2617,0.1484 0.45772,0.12403 0.66432,-0.0826 z m -35.40022,-5.25671 c 0.19275,-0.12039 0.19552,-0.14818 0.19603,-1.96661 3.2e-4,-1.19425 0.0464,-2.14918 0.13078,-2.70878 0.0716,-0.47536 0.10814,-0.934 0.0811,-1.01921 -0.0531,-0.16748 -0.3523,-0.27196 -1.71253,-0.59812 -0.76723,-0.18398 -0.86136,-0.19053 -0.98345,-0.0684 -0.0842,0.0842 -0.20064,0.55669 -0.30939,1.25563 -0.21542,1.38443 -0.32939,4.84733 -0.16937,5.14633 0.10002,0.18689 0.12736,0.18968 1.33672,0.13606 0.82561,-0.0366 1.29938,-0.0952 1.43012,-0.17687 z m 1.19813,-9.11164 c 0.40553,-1.19414 0.80817,-2.08776 1.33197,-2.95624 0.20106,-0.33336 0.35434,-0.68378 0.34063,-0.77871 -0.0287,-0.19859 -1.50805,-1.3427 -1.74056,-1.34612 -0.0833,-10e-4 -0.27195,0.16395 -0.41915,0.36707 -0.49212,0.67904 -1.45824,2.53091 -1.84732,3.54093 -0.52804,1.37078 -0.54083,1.44182 -0.28929,1.60664 0.35336,0.23153 1.65011,0.64447 1.96708,0.6264 l 0.30252,-0.0172 z m 17.41585,-5.29945 c 0.56849,-0.20058 1.00673,-0.60175 1.3013,-1.19123 0.24512,-0.49052 0.26587,-0.60218 0.26587,-1.43056 v -0.8985 h -5.25709 c -4.1194,0 -5.25709,0.0232 -5.25709,0.10752 0,0.18825 1.15511,1.22587 1.78358,1.60219 0.40464,0.24229 0.96692,0.46608 1.69218,0.67349 0.59739,0.17085 1.79002,0.52294 2.65027,0.78243 1.67417,0.50501 2.2055,0.57181 2.82098,0.35466 z m -14.05529,-0.76605 c 0.64949,-0.52862 0.63907,-0.63325 -0.12535,-1.25787 -0.35081,-0.28666 -0.69013,-0.58421 -0.75403,-0.66121 -0.2147,-0.2587 -0.50001,-0.16807 -0.82955,0.2635 -0.16945,0.22194 -0.30811,0.48905 -0.30811,0.59358 0,0.21969 1.2038,1.43594 1.42124,1.43594 0.075,0 0.3431,-0.16827 0.5958,-0.37394 z m 17.39958,-5.83163 c 0.34997,-0.14623 0.48212,-0.36212 0.48212,-0.78764 0,-0.41937 -0.31461,-0.74036 -0.72564,-0.74036 -0.23358,0 -0.35815,0.0673 -0.56877,0.30715 -0.14832,0.16894 -0.26968,0.38216 -0.26968,0.47383 0,0.3033 0.20925,0.63257 0.47581,0.74871 0.32668,0.14233 0.26104,0.14251 0.60616,-0.002 z m -6.76378,-0.0923 c 0.92179,-0.27374 1.52176,-1.09336 1.52176,-2.0789 0,-0.68822 -0.19735,-1.11191 -0.74069,-1.59018 -1.39532,-1.2282 -3.43726,-0.22289 -3.44024,1.69375 -0.001,0.91176 0.52165,1.63326 1.40533,1.93846 0.5663,0.19559 0.70558,0.19969 1.25384,0.0369 z m 5.37768,33.84434 c -0.57572,-0.0909 -1.33851,-0.38623 -1.97122,-0.76313 l -0.5146,-0.30654 -0.75565,0.39611 c -0.98461,0.51613 -1.5432,0.67249 -2.40244,0.67249 -2.71156,0 -5.62134,-2.4187 -7.10847,-5.9088 -0.46207,-1.08441 -0.66437,-1.90604 -0.77707,-3.15599 -0.19003,-2.10775 0.16926,-3.99564 1.04485,-5.48996 0.95597,-1.63152 2.49814,-2.87468 4.09932,-3.30452 1.31328,-0.35255 2.92748,-0.21614 4.01886,0.33961 l 0.58653,0.29868 0.003,-0.36132 c 0.0103,-1.26503 0.10073,-2.48794 0.21834,-2.95148 0.18311,-0.7217 0.79215,-1.93078 1.17731,-2.33725 0.24597,-0.25958 0.37719,-0.32967 0.61713,-0.32967 0.67994,0 1.2638,0.75872 0.99053,1.28719 -0.0665,0.12862 -0.20742,0.31197 -0.31313,0.40744 -0.28623,0.25853 -0.66655,1.06908 -0.77377,1.64906 -0.10639,0.57552 -0.13006,2.76941 -0.0294,2.7239 0.0358,-0.0162 0.27935,-0.14193 0.54113,-0.2794 0.85331,-0.4481 1.37666,-0.58742 2.39328,-0.63712 0.79729,-0.039 1.08005,-0.0158 1.68923,0.13821 1.85442,0.46895 3.37023,1.67644 4.46317,3.55538 0.17477,0.30046 0.33958,0.63283 0.36624,0.7386 0.0475,0.18856 0.0344,0.19174 -0.67164,0.16331 -1.66809,-0.0671 -3.0374,0.74701 -3.7388,2.22303 -0.3832,0.80638 -0.47656,1.56361 -0.29399,2.38423 0.19836,0.8916 0.47315,1.40896 1.06517,2.00548 0.8208,0.82702 1.70603,1.15136 2.97662,1.09061 l 0.77235,-0.0369 -0.084,0.22186 c -0.47337,1.24962 -1.66528,2.89409 -2.74946,3.79343 -1.65958,1.37663 -3.37396,2.00491 -4.83932,1.77348 z m -10.40208,-11.78744 c 0.10945,-0.0293 0.25595,-0.16345 0.32556,-0.29806 0.30608,-0.5919 -0.44641,-1.15816 -0.91558,-0.689 -0.23485,0.23486 -0.21884,0.57111 0.0395,0.82945 0.23092,0.23091 0.25312,0.23727 0.55052,0.15761 z m 1.61958,-2.62449 c 0.28657,-0.27103 0.62995,-0.48968 0.96423,-0.61399 0.7727,-0.28734 0.91019,-0.39836 0.91019,-0.73496 0,-0.60877 -0.64683,-0.77981 -1.43625,-0.37978 -0.23899,0.1211 -0.67472,0.40075 -0.96829,0.62143 -0.59515,0.44737 -0.77362,0.77719 -0.62792,1.1604 0.196,0.51553 0.57518,0.49814 1.15804,-0.0531 z m 11.30243,-5.66563 c -0.28675,-0.0448 -0.80463,-0.1443 -1.15084,-0.22113 -0.57006,-0.12651 -0.62542,-0.15735 -0.58646,-0.3266 0.0236,-0.1028 0.10343,-0.45494 0.17729,-0.78253 0.36319,-1.61111 1.17291,-3.04011 2.4295,-4.28762 2.04991,-2.03512 4.69879,-3.06544 7.88509,-3.06704 l 1.021,-6.6e-4 -0.001,0.3693 c -0.003,0.77971 -0.51019,2.47236 -1.08767,3.62783 -1.14103,2.28307 -3.06181,3.89399 -5.38725,4.51818 -0.79615,0.2137 -2.46834,0.29992 -3.29938,0.17012 z"
           id="path1" /></g><g
         id="g33"
         transform="translate(-27.075105,81.400105)"><path
           d="m 120.89443,44.964181 c -0.58544,-0.286757 -1.11813,-0.640132 -1.58388,-1.078488 -0.77611,-0.75259 -1.37604,-1.763927 -1.79938,-3.033923 -0.42333,-1.269996 -0.6351,-2.869128 -0.6351,-4.79764 0,-1.844686 0.1992,-3.379251 0.58653,-4.621423 h -5.23793 v 4.480346 h 4.16306 v 5.291667 c -0.39982,0.09407 -0.81174,0.152698 -1.23507,0.176217 -0.42333,0.02352 -0.88174,0.03514 -1.37563,0.03514 -1.19944,0 -2.22239,-0.117249 -3.06906,-0.352434 -0.82314,-0.235184 -1.49332,-0.647105 -2.01073,-1.235066 -0.5174,-0.61148 -0.89394,-1.434289 -1.12913,-2.4691 -0.23518,-1.05833 -0.35295,-2.399204 -0.35295,-4.021977 0,-1.552217 0.12939,-2.83395 0.38809,-3.845243 0.28222,-1.034812 0.69414,-1.857621 1.23507,-2.4691 0.56444,-0.634998 1.27,-1.070163 2.11666,-1.305347 0.87019,-0.258703 1.89315,-0.38809 3.06907,-0.38809 1.05833,0 2.11667,0.08238 3.175,0.247013 1.08185,0.164629 2.08156,0.411265 2.99878,0.740524 v -4.691704 c -0.37629,-0.14111 -0.8236,-0.258876 -1.341,-0.35295 -0.51741,-0.117592 -1.06982,-0.211598 -1.65778,-0.282153 -0.56444,-0.07055 -1.16438,-0.12918 -1.79938,-0.176217 -0.61148,-0.04704 -1.21089,-0.0708 -1.79885,-0.0708 -1.905,0 -3.61027,0.211771 -5.11545,0.635103 -1.50518,0.423332 -2.78692,1.128892 -3.84525,2.116667 -1.05833,0.987774 -1.86951,2.29275 -2.43396,3.915523 -0.56444,1.599254 -0.84697,3.574926 -0.84697,5.92677 0,2.56351 0.27039,4.668569 0.81132,6.31486 0.56444,1.622773 1.36401,2.904506 2.39882,3.845243 1.03481,0.91722 2.2933,1.552017 3.77496,1.904794 1.50518,0.352776 3.19832,0.529166 5.07979,0.529166 1.5287,0 2.99896,-0.105627 4.41007,-0.317293 1.22116,-0.180171 2.21401,-0.401757 3.06028,-0.650089 z"
           style="font-size:35.2777px;font-family:Cinzel;-inkscape-font-specification:Cinzel;letter-spacing:-8.47196px;word-spacing:0px;fill:#000000;stroke-width:0.353999"
           id="path31" /><path
           d="m 130.18585,45.57913 h -0.12092 v -3.977018 c -0.37047,0.06948 -0.73441,0.142123 -1.12396,0.202055 -0.61148,0.07055 -1.2109,0.105936 -1.79886,0.105936 -1.69333,0 -2.95182,-0.317398 -3.77496,-0.952396 -0.82315,-0.634998 -1.28156,-1.634714 -1.37563,-2.998784 l 8.07341,-0.510563 V 26.717232 c -1.01433,-0.354735 -2.26278,-0.541052 -3.7698,-0.541052 -1.48166,0 -2.81039,0.153147 -3.98632,0.458887 -1.17592,0.305739 -2.1635,0.83491 -2.96312,1.5875 -0.79963,0.75259 -1.41118,1.763927 -1.83452,3.033923 -0.0184,0.0552 -0.031,0.11977 -0.0486,0.176217 h 3.89898 V 44.83809 c -0.13647,0.04549 -0.31922,0.08268 -0.46715,0.126091 0.41967,0.20556 0.86293,0.381355 1.3441,0.509012 1.15241,0.30574 2.45738,0.45837 3.91553,0.45837 0.82314,0 1.61109,-0.047 2.36368,-0.141076 0.60293,-0.05481 1.15034,-0.128157 1.66811,-0.211357 z m -3.89072,-15.557707 c 0.75259,0 1.35253,0.106144 1.79938,0.31781 0.47037,0.188148 0.82315,0.458544 1.05833,0.81132 0.2587,0.329259 0.42347,0.729042 0.49403,1.19941 0.0941,0.446851 0.14107,0.929018 0.14107,1.446424 l -7.79642,0.599446 c 0.0235,-0.75259 0.11752,-1.399009 0.28215,-1.939933 0.16463,-0.564443 0.41179,-1.023367 0.74104,-1.376143 0.32926,-0.352777 0.75229,-0.611551 1.26969,-0.77618 0.54093,-0.188148 1.21111,-0.282154 2.01073,-0.282154 z"
           style="font-size:35.2777px;font-family:Cinzel;-inkscape-font-specification:Cinzel;letter-spacing:-8.47196px;word-spacing:0px;fill:#000000;stroke-width:0.353999"
           id="path25" /><path
           d="m 146.01486,45.57913 c -1.06161,-0.167916 -1.95884,-0.343072 -2.62051,-0.529167 v -4.69222 c 0.37629,0.141111 0.83522,0.270498 1.37614,0.38809 0.54093,0.117593 1.1171,0.223737 1.72858,0.31781 0.31317,0.03614 0.63823,0.07187 0.95756,0.108004 v -7.001123 c -0.18505,-0.06648 -0.40166,-0.129679 -0.56999,-0.197921 -0.84666,-0.376295 -1.52846,-0.823081 -2.04587,-1.340486 -0.5174,-0.540924 -0.88181,-1.18786 -1.09347,-1.94045 -0.21167,-0.75259 -0.31781,-1.681544 -0.31781,-2.78691 0,-0.524327 0.0406,-1.009247 0.10438,-1.471745 -0.68534,-0.169522 -1.48072,-0.256832 -2.3921,-0.256832 -1.38759,0 -2.59856,0.223393 -3.63337,0.670243 -1.03481,0.423332 -1.81113,1.08189 -2.32854,1.97559 V 26.52913 h -5.11493 v 0.188102 c 0.0937,0.03278 0.19779,0.05824 0.28732,0.09405 1.05833,0.399814 1.89328,0.975987 2.50476,1.728577 0.61148,0.729072 1.02288,1.611022 1.23455,2.645833 0.23518,1.011293 0.35295,2.128258 0.35295,3.351217 0,0.540924 -0.0238,1.058473 -0.0708,1.55236 -0.0235,0.470369 -0.0584,0.83477 -0.10542,1.093473 l -4.20336,0.265617 v 4.153752 c 0.21105,-0.03958 0.43542,-0.07256 0.64027,-0.115239 0.56444,-0.117592 1.08147,-0.258601 1.55184,-0.42323 0.49389,-0.164629 0.89367,-0.329397 1.19941,-0.494026 v 4.02146 c -0.28222,0.164629 -0.66986,0.329397 -1.16375,0.494026 -0.47037,0.164629 -1.0233,0.305638 -1.6583,0.42323 -0.14169,0.02624 -0.29983,0.0469 -0.44855,0.0708 h 4.99401 V 32.94941 c 0.28222,-0.987775 0.76439,-1.669575 1.44643,-2.04587 0.68203,-0.376295 1.55236,-0.564307 2.61069,-0.564307 0.635,0 1.15255,0.07025 1.55236,0.211357 0.39981,0.117592 0.70559,0.317742 0.91726,0.599963 0.23518,0.282222 0.39943,0.658245 0.49351,1.128614 0.0941,0.44685 0.14107,0.988158 0.14107,1.623156 V 45.57913 Z"
           style="font-size:35.2777px;font-family:Cinzel;-inkscape-font-specification:Cinzel;letter-spacing:-8.47196px;word-spacing:0px;fill:#000000;stroke-width:0.353999"
           id="path21" /><path
           d="M 155.9481,45.102157 V 31.772221 c -0.85125,-0.370366 -1.88806,-0.708153 -3.13469,-1.009758 -0.8937,-0.211666 -1.6225,-0.411815 -2.18695,-0.599963 -0.54092,-0.188148 -0.96446,-0.387781 -1.2702,-0.599447 -0.28222,-0.235184 -0.47023,-0.493958 -0.56431,-0.77618 -0.0941,-0.282221 -0.14108,-0.623379 -0.14108,-1.023193 0,-1.034811 0.30578,-1.72875 0.91726,-2.081527 0.635,-0.352776 1.64634,-0.529166 3.03392,-0.529166 0.51741,0 1.0582,0.02376 1.62264,0.0708 0.58621,0.0469 1.16058,0.117703 1.72341,0.211357 v -4.423503 c -1.0343,-0.176125 -2.21539,-0.2682 -3.55792,-0.2682 -2.84573,0 -5.05642,0.55293 -6.63215,1.658296 -1.23762,0.862585 -1.97332,2.211811 -2.22416,4.031279 0.19894,0.04921 0.39165,0.102907 0.57155,0.166398 0.82314,0.258703 1.4817,0.658486 1.97559,1.19941 0.49388,0.540924 0.84666,1.21162 1.05833,2.011247 0.21167,0.776108 0.31729,1.692923 0.31729,2.751253 v 1.609204 c 0.77157,0.277197 1.64868,0.543019 2.71095,0.789616 0.94074,0.235184 1.6933,0.459094 2.25774,0.67076 0.58796,0.211666 1.03475,0.446681 1.34049,0.705383 0.32926,0.258703 0.55317,0.552859 0.67076,0.882117 0.11759,0.329258 0.17621,0.729041 0.17621,1.19941 0,0.540924 -0.0708,0.999332 -0.21187,1.375627 -0.14111,0.376295 -0.38775,0.682072 -0.74052,0.917256 -0.32926,0.235185 -0.77605,0.399953 -1.34049,0.494027 -0.54092,0.09407 -1.21162,0.141077 -2.01125,0.141077 -0.63499,0 -1.28141,-0.02376 -1.93993,-0.0708 -0.30978,-0.03442 -0.6079,-0.06893 -0.91209,-0.103353 v 4.407483 h -1.44177 c 0.14588,0.02307 0.25999,0.04755 0.41341,0.07028 1.29352,0.188148 2.65763,0.282153 4.09226,0.282153 2.23174,0 4.0347,-0.280518 5.42757,-0.829406 z"
           style="font-size:35.2777px;font-family:Cinzel;-inkscape-font-specification:Cinzel;letter-spacing:-8.47196px;word-spacing:0px;fill:#000000;stroke-width:0.353999"
           id="path17" /><path
           d="m 174.92214,26.52913 v 19.05 h 1.72289 V 32.94941 c 0.28222,-0.987775 0.76439,-1.669575 1.44643,-2.04587 0.68203,-0.376295 1.55236,-0.564307 2.61069,-0.564307 0.635,0 1.15254,0.07025 1.55236,0.211357 0.39981,0.117592 0.70559,0.317742 0.91726,0.599963 0.23518,0.282222 0.39995,0.658245 0.49402,1.128614 0.0941,0.44685 0.14108,0.988158 0.14108,1.623156 V 45.57913 h 5.11493 V 32.56132 c 0,-1.05833 -0.10563,-1.975145 -0.31729,-2.751253 -0.21167,-0.799627 -0.56445,-1.470323 -1.05833,-2.011247 -0.49389,-0.540924 -1.15245,-0.940707 -1.97559,-1.19941 -0.79963,-0.282221 -1.78721,-0.42323 -2.96313,-0.42323 -1.38759,0 -2.59908,0.223393 -3.63389,0.670243 -1.03481,0.423332 -1.81113,1.08189 -2.32854,1.97559 V 26.52913 Z"
           style="font-size:35.2777px;font-family:Cinzel;-inkscape-font-specification:Cinzel;letter-spacing:-8.47196px;word-spacing:0px;fill:#000000;stroke-width:0.353999"
           id="path16" /><path
           d="m 171.5301,27.397294 c 0.15569,0.124511 0.30196,0.256818 0.43408,0.401526 0.49389,0.540924 0.84667,1.21162 1.05833,2.011247 0.21167,0.776108 0.3173,1.692923 0.3173,2.751253 v 13.01781 h 1.58233 v -19.05 h -3.39204 z"
           style="font-size:35.2777px;font-family:Cinzel;-inkscape-font-specification:Cinzel;letter-spacing:-8.47196px;word-spacing:0px;fill:#000000;stroke-width:0.353999"
           id="path13" /><path
           d="M 169.80669,26.546183 V 45.57913 h 1.72341 V 27.397294 c -0.42628,-0.340913 -0.93857,-0.608389 -1.54151,-0.797884 -0.0573,-0.02022 -0.12269,-0.03446 -0.1819,-0.05323 z"
           style="font-size:35.2777px;font-family:Cinzel;-inkscape-font-specification:Cinzel;letter-spacing:-8.47196px;word-spacing:0px;fill:#000000;stroke-width:0.353999"
           id="path12" /><path
           d="m 169.80669,26.546183 c 0.0592,0.01877 0.12462,0.03301 0.1819,0.05323 0.60294,0.189495 1.11523,0.456971 1.54151,0.797884 V 26.52913 h -1.72341 z"
           style="font-size:35.2777px;font-family:Cinzel;-inkscape-font-specification:Cinzel;letter-spacing:-8.47196px;word-spacing:0px;fill:#000000;stroke-width:0.353999"
           id="path11" /><path
           d="m 155.9481,18.767847 v 2.24379 c 0.0347,0.0059 0.0767,0.0078 0.11111,0.01395 1.08185,0.164629 1.95218,0.364779 2.61069,0.599963 v 4.40955 c -0.30574,-0.09407 -0.6939,-0.188079 -1.16427,-0.282153 -0.47037,-0.117592 -0.98792,-0.223219 -1.55236,-0.317293 -0.002,-2.81e-4 -0.003,-2.37e-4 -0.005,-5.17e-4 v 6.337081 c 0.14443,0.06284 0.29535,0.124835 0.4284,0.189652 0.94074,0.423332 1.67006,0.940881 2.18746,1.55236 0.54093,0.587961 0.90533,1.293522 1.09348,2.116667 0.18815,0.799627 0.28215,1.775583 0.28215,2.927987 0,2.398881 -0.7288,4.233027 -2.18695,5.503023 -0.49053,0.419328 -1.09841,0.761985 -1.80454,1.040247 v 0.476973 h 5.11494 v -12.48864 c 0.28222,-1.034812 0.76439,-1.751993 1.44642,-2.151807 0.68204,-0.399814 1.55236,-0.599447 2.61069,-0.599447 1.22296,0 2.04629,0.270396 2.46962,0.81132 0.42333,0.540925 0.63459,1.458256 0.63459,2.75177 V 45.57913 h 1.58233 V 26.546183 c -0.76737,-0.243239 -1.69005,-0.370003 -2.78174,-0.370003 -1.41111,0 -2.6337,0.223393 -3.66851,0.670243 -1.0113,0.446851 -1.776,1.11703 -2.2934,2.01073 V 18.767847 Z"
           style="font-size:35.2777px;font-family:Cinzel;-inkscape-font-specification:Cinzel;letter-spacing:-8.47196px;word-spacing:0px;fill:#000000;stroke-width:0.353999"
           id="path10" /><path
           d="m 172.38224,18.520833 c -0.56444,0 -1.03499,0.02376 -1.41128,0.0708 -0.3763,0.04704 -0.67045,0.164286 -0.88212,0.352433 -0.21166,0.188148 -0.36429,0.45906 -0.45837,0.811837 -0.0705,0.352777 -0.10593,0.822806 -0.10593,1.410767 0,0.611479 0.0354,1.093646 0.10593,1.446423 0.0941,0.352777 0.24671,0.623172 0.45837,0.81132 0.21167,0.188148 0.50582,0.317535 0.88212,0.38809 0.37629,0.04704 0.84684,0.0708 1.41128,0.0708 0.58796,0 1.05799,-0.02376 1.41077,-0.0708 0.37629,-0.07055 0.67045,-0.199942 0.88212,-0.38809 0.21166,-0.188148 0.35267,-0.458543 0.42323,-0.81132 0.0941,-0.352777 0.14107,-0.834944 0.14107,-1.446423 0,-0.587961 -0.047,-1.05799 -0.14107,-1.410767 -0.0706,-0.352777 -0.21157,-0.623689 -0.42323,-0.811837 -0.21167,-0.188147 -0.50583,-0.305396 -0.88212,-0.352433 -0.35278,-0.04704 -0.82281,-0.0708 -1.41077,-0.0708 z"
           style="font-size:35.2777px;font-family:Cinzel;-inkscape-font-specification:Cinzel;letter-spacing:-8.47196px;word-spacing:0px;fill:#000000;stroke-width:0.353999"
           id="path9" /></g><g
         id="g10"><path
           id="text33"
           style="font-size:35.2777px;font-family:'Alibaba PuHuiTi';-inkscape-font-specification:'Alibaba PuHuiTi';letter-spacing:-9.04346px;word-spacing:0px;baseline-shift:baseline;stroke-width:0.354"
           d="m 135.6205,160.07211 c -1.81093,0 -3.52437,0.21177 -5.13974,0.6351 -1.59183,0.42334 -3.08851,1.1289 -4.49016,2.11667 -0.23889,0.16835 -0.46969,0.35891 -0.70177,0.5457 -0.1007,-0.49065 -0.30956,-0.92341 -0.64854,-1.28674 -0.47241,-0.56444 -1.24869,-0.97585 -2.32853,-1.23455 -1.07112,-0.28222 -2.5002,-0.42323 -4.2876,-0.42323 h -8.25531 l -9.09195,24.48275 h 8.99531 c 1.7874,0 3.32627,-0.15315 4.61575,-0.45889 1.2982,-0.32926 2.39707,-0.78767 3.29747,-1.37563 0.2796,-0.18332 0.53994,-0.38202 0.79013,-0.58859 0.0696,0.11795 0.14241,0.23276 0.22169,0.34158 0.69417,0.91722 1.70525,1.55201 3.03237,1.90479 1.32713,0.35278 2.88416,0.52917 4.67156,0.52917 1.17592,0 2.31629,-0.094 3.42097,-0.28215 0.83439,-0.14211 1.59355,-0.31791 2.27842,-0.5271 l -0.16951,0.45682 h 8.39587 c 1.78741,0 3.48036,-0.18853 5.07825,-0.56483 1.63015,-0.39981 3.13699,-1.06999 4.52118,-2.01073 1.40769,-0.94074 2.68211,-2.18709 3.82302,-3.7393 1.04749,-1.43574 1.97853,-3.22052 2.80396,-5.32009 l 0.29662,-6.89157 -2.44843,9.46454 1.79318,-9.70639 -3.74189,9.03201 3.12693,-9.36222 -4.96248,8.42274 4.39921,-8.83563 -2.75952,3.46852 c -0.0903,0.98214 -0.42126,2.24731 -0.99839,3.80132 -0.55025,1.48165 -1.14979,2.71638 -1.79886,3.70416 -0.62554,0.98778 -1.32973,1.77572 -2.11252,2.36368 -0.75928,0.58796 -1.6059,0.99937 -2.5399,1.23455 -0.9105,0.23519 -1.93036,0.35295 -3.05925,0.35295 h -2.75177 l 5.71231,-15.38097 h 2.75177 c 0.0255,0 0.0481,0.001 0.0734,0.002 l 5.78311,-2.5182 -9.5803,1.94821 9.51001,-2.64325 -9.75806,0.59634 9.78545,-1.29398 -7.69823,-0.60616 h -4.55218 l -0.13642,0.3669 c -1.28238,-0.47774 -3.0006,-0.71985 -5.16661,-0.71985 z m 17.76223,3.03031 -5.24672,1.85725 c 0.68697,0.0349 1.28468,0.12186 1.80713,0.25321 z m 0.25889,0.64854 -3.14658,1.63762 c 0.261,0.1036 0.49363,0.23164 0.69144,0.38861 z m 0.34676,0.60616 -2.45929,1.7539 c 0.0891,0.10829 0.17304,0.22083 0.24185,0.34623 0.0403,0.0641 0.0673,0.14155 0.10179,0.21136 z m -19.7187,0.30127 c 1.03481,0 1.96882,0.0824 2.80138,0.24702 0.73903,0.12396 1.40241,0.29587 1.99884,0.51056 l -5.35058,14.40791 c -0.84121,0.23729 -1.66861,0.43665 -2.47064,0.56844 -0.96963,0.14111 -1.96011,0.21136 -2.9714,0.21136 -1.08186,0 -1.97851,-0.11725 -2.69079,-0.35244 -0.68877,-0.23518 -1.18304,-0.6471 -1.48208,-1.23506 -0.29032,-0.61148 -0.3768,-1.42267 -0.25994,-2.43396 0.14914,-1.03482 0.52073,-2.35193 1.11466,-3.95118 0.559,-1.50518 1.14367,-2.76316 1.75442,-3.77445 0.63429,-1.0113 1.3236,-1.823 2.06809,-2.43448 0.75323,-0.63499 1.57805,-1.08178 2.47375,-1.34048 0.90444,-0.28223 1.90893,-0.42324 3.01429,-0.42324 z m -20.7238,0.0351 h 1.79937 c 0.87018,0 1.60968,0.0354 2.21848,0.10594 0.61753,0.047 1.07483,0.17643 1.37252,0.38809 0.3212,0.21167 0.50609,0.5053 0.55449,0.8816 0.0484,0.3763 -0.0453,0.88222 -0.28113,1.51722 -0.22709,0.61148 -0.50457,1.10527 -0.8325,1.48157 -0.3279,0.37629 -0.73081,0.67045 -1.20923,0.88211 -0.47842,0.21167 -1.05296,0.3643 -1.72289,0.45837 -0.6377,0.0706 -1.39119,0.10594 -2.26137,0.10594 h -1.79937 z m 40.87037,0.21549 -2.36264,2.24173 c 0.0811,0.2985 0.13081,0.62776 0.13539,1.00252 z m 3.01635,1.62006 -0.68212,5.98103 c 0.4131,-1.12581 0.73145,-2.1548 0.96169,-3.09283 z m 0.69608,0.0517 0.007,0.27078 c 0.004,-0.0669 0.008,-0.13355 0.0103,-0.19895 z m -48.18569,7.81399 h 2.46962 c 0.94074,0 1.70674,0.0591 2.29805,0.17674 0.60005,0.0941 1.0285,0.27046 1.28519,0.52916 0.28896,0.23518 0.42958,0.55258 0.4222,0.9524 0.0161,0.39981 -0.0803,0.88198 -0.2899,1.44642 -0.23583,0.635 -0.51064,1.15255 -0.82373,1.55236 -0.28959,0.39982 -0.666,0.71721 -1.12964,0.9524 -0.45491,0.21167 -1.01731,0.3643 -1.68724,0.45837 -0.64643,0.0941 -1.44,0.14108 -2.38074,0.14108 h -2.46962 z" /></g><g
         id="layer1-4"
         transform="translate(-10.42192,6.53733)"><rect
           style="display:none;fill:#000000;stroke-width:1.873"
           id="rect1421"
           width="209.30545"
           height="338.66333"
           x="0"
           y="0" /><rect
           style="display:none;fill:#000000;stroke-width:1.873"
           id="rect1422"
           width="210.82605"
           height="210.82605"
           x="-0.82606"
           y="43.06472" /><g
           id="g1421"
           clip-path="url(#clipPath1421)"
           style="display:inline"
           transform="translate(11.647778,-130.68152)"><rect
             style="display:none;fill:url(#meshgradient31);fill-opacity:1;stroke-width:15.4988"
             id="rect28"
             width="190.81491"
             height="81.70359"
             x="10.514071"
             y="154.95464" /><path
             id="rect6"
             style="fill:#ff0000;stroke-width:1.873"
             d="m 87.132034,146.82846 17.454936,0.18015 v 2.93827 l -17.454934,-0.0947 z" /><path
             id="path6"
             style="fill:#ffffff;stroke-width:0.389595"
             d="m 89.554224,144.40824 c -0.209912,0.77032 -0.353155,1.56135 -0.414962,2.36833 -0.266546,2.24301 0.01825,4.54338 0.769462,6.67763 h 8.797913 c -2.000779,-2.49255 -2.281415,-6.26787 -0.753443,-9.04596 z m 20.435446,0 c 0.22807,0.15768 0.47683,0.28018 0.76998,0.32815 0.0911,-0.11279 0.19298,-0.2192 0.29042,-0.32815 z" /><path
             style="fill:#000000;stroke-width:0.389595"
             d="m 61.980394,159.65152 v -1.51016 l 1.11368,-0.1575 c 1.50849,-0.21333 2.59683,-0.72245 3.36079,-1.57216 1.40478,-1.56245 1.29455,-3.83995 -0.2441,-5.04368 -0.65352,-0.51126 -2.02119,-1.0456 -4.91128,-1.9188 -4.05242,-1.22438 -5.57914,-2.0942 -6.56325,-3.73929 -1.85952,-3.10847 -0.58795,-7.18912 2.74943,-8.82329 1.35333,-0.66267 2.38132,-0.91668 4.08871,-1.01028 3.11592,-0.17082 6.28875,0.99277 8.57089,3.14326 l 0.97493,0.91868 -1.17101,1.17907 -1.17101,1.17907 -0.95932,-0.93267 c -1.6512,-1.60534 -3.60526,-2.4239 -5.76974,-2.41694 -1.42655,0.005 -2.41283,0.31453 -3.28194,1.03138 -1.49143,1.23015 -1.58089,3.82653 -0.17289,5.01758 0.65509,0.55416 1.53519,0.9056 4.76052,1.901 1.62523,0.50158 3.46332,1.1561 4.08464,1.45449 2.05768,0.98818 3.30931,2.61324 3.63721,4.72237 0.65012,4.18177 -2.71165,7.49466 -8.11481,7.99683 l -0.98145,0.0912 z m 78.478546,1.34397 c -2.39907,-0.34746 -3.9193,-1.05128 -5.36671,-2.48462 -1.17369,-1.16229 -1.84017,-2.34908 -2.35855,-4.19991 -0.29846,-1.06564 -0.30681,-1.29465 -0.35146,-9.64722 l -0.0457,-8.55567 h 1.86219 1.86219 l 0.002,8.07463 c 0.003,8.76894 0.0294,9.14269 0.76735,10.70261 1.11094,2.34834 3.55224,3.49481 6.54243,3.07243 1.95148,-0.27566 3.41624,-1.2646 4.21316,-2.84452 0.69563,-1.3791 0.74279,-1.68969 0.83028,-5.46726 l 0.0828,-3.57345 1.82109,-0.0383 1.82109,-0.0383 -0.005,3.26821 c -0.003,2.11731 -0.07,3.63119 -0.1899,4.299 -0.40283,2.24323 -1.59703,4.40845 -3.06275,5.5531 -0.92644,0.72351 -2.41633,1.40978 -3.62049,1.66768 -1.19994,0.25699 -3.72392,0.3682 -4.80451,0.21169 z m 39.58288,-5.37483 v -5.50161 l 1.82108,0.0383 1.82109,0.0383 0.0359,5.46327 0.0359,5.46326 h -1.85702 -1.85703 z m 8.45259,-6.75949 c -4.61113,-6.73907 -8.40449,-12.30356 -8.42969,-12.36552 -0.0252,-0.062 0.93832,-0.11267 2.14114,-0.11267 h 2.18695 l 6.58633,9.76576 6.58634,9.76576 0.0687,-9.7314 0.0687,-9.7314 h 1.78673 1.78672 l 0.0351,12.33529 0.0351,12.33528 -2.23414,-0.004 -2.23415,-0.004 z"
             id="path2" /><path
             d="m 74.095857,149.76052 c -0.0504,-0.0504 -0.0916,-0.73072 -0.0916,-1.51184 v -1.42022 h 7.078182 7.07819 v 1.51184 1.51185 h -6.98656 c -3.84261,0 -7.027792,-0.0412 -7.078192,-0.0916 z"
             style="fill:#ff0000;stroke-width:0.389595"
             id="path1-5" /><path
             d="m 73.057788,160.7893 c -0.0504,-0.0504 -0.0916,-0.73073 -0.0916,-1.51185 v -1.42022 h 8.246432 8.24643 v 1.51185 1.51184 h -8.1548 c -4.48515,0 -8.196042,-0.0412 -8.246442,-0.0916 z m -0.0325,-21.66809 c -0.0383,-0.0999 -0.0519,-0.79567 -0.03,-1.54621 l 0.0396,-1.36462 8.212072,-0.0355 8.21207,-0.0354 v 1.58165 1.58165 h -8.18202 c -6.653942,0 -8.195042,-0.0339 -8.251712,-0.18159 z"
             style="display:inline;fill:#000000;stroke-width:0.389595"
             id="path1-8" /><path
             d="m 101.48426,160.90124 c -1.490481,-0.2662 -2.259181,-0.52822 -3.676041,-1.25297 -6.38691,-3.26705 -8.59527,-11.6277 -4.75327,-17.99541 1.16093,-1.9241 3.53767,-3.93456 5.68763,-4.81109 1.934651,-0.78874 3.408041,-1.04746 5.490501,-0.9641 2.1418,0.0857 3.46517,0.40449 5.22275,1.25798 1.1968,0.58119 3.02486,1.93507 3.18847,2.36143 0.053,0.13808 -0.3053,0.59594 -1.05982,1.3544 l -1.13985,1.14581 -0.80524,-0.71118 c -1.90544,-1.68289 -3.5774,-2.34818 -5.88735,-2.34263 -3.65583,0.009 -6.378911,1.70434 -7.917611,4.93002 -0.73501,1.54086 -0.94127,2.51969 -0.94127,4.46681 0,2.06385 0.20809,2.96053 1.11634,4.81042 0.52978,1.07903 0.8348,1.49656 1.7571,2.40521 1.5884,1.56488 2.734751,2.09789 5.332601,2.47941 l 0.5154,0.0757 v 1.50561 1.50562 l -0.5154,-0.0123 c -0.28347,-0.007 -1.0102,-0.10071 -1.61494,-0.20871 z"
             style="fill:#000000;stroke-width:0.389595"
             id="path1-7" /><rect
             style="display:none;fill:#000000;stroke-width:1.86542"
             id="rect3"
             width="53.32692"
             height="3.0262787"
             x="8.6534739"
             y="158.13542" /><path
             id="path7"
             style="display:inline;fill:#000000;stroke-width:1.873"
             d="m 165.96816,135.83822 a 12.679642,12.661699 0 0 0 -12.67984,12.66176 12.679642,12.661699 0 0 0 12.67984,12.66176 12.679642,12.661699 0 0 0 12.67933,-12.66176 12.679642,12.661699 0 0 0 -12.67933,-12.66176 z m 0,3.73982 a 8.9344444,8.9218016 0 0 1 8.93434,8.92194 8.9344444,8.9218016 0 0 1 -8.93434,8.92194 8.9344444,8.9218016 0 0 1 -8.93433,-8.92194 8.9344444,8.9218016 0 0 1 8.93433,-8.92194 z" /><path
             id="path8"
             style="display:inline;fill:#000000;stroke-width:1.873"
             d="m 39.829471,135.83822 a 12.679642,12.661699 0 0 0 -12.67984,12.66176 12.679642,12.661699 0 0 0 12.67984,12.66176 12.679642,12.661699 0 0 0 12.67933,-12.66176 12.679642,12.661699 0 0 0 -12.67933,-12.66176 z m 0,3.73982 a 8.9344444,8.9218016 0 0 1 8.93434,8.92194 8.9344444,8.9218016 0 0 1 -8.93434,8.92194 8.9344444,8.9218016 0 0 1 -8.93433,-8.92194 8.9344444,8.9218016 0 0 1 8.93433,-8.92194 z" /><path
             style="display:none;fill:#000000;stroke-width:0.389595"
             d="m 8.653474,159.61652 v -1.50574 l 5.26114,-0.0405 5.26114,-0.0405 0.68316,-0.35159 c 1.37263,-0.70643 2.19191,-2.28263 2.17473,-4.18394 -0.0174,-1.92261 -0.82994,-3.39109 -2.2748,-4.11109 l -0.71386,-0.35573 h -5.19576 -5.19575 v -1.51185 -1.51184 h 5.03886 5.03887 l 0.56875,-0.33332 c 1.9083,-1.11833 1.86134,-4.92483 -0.0731,-5.92516 -0.3211,-0.16605 -1.27925,-0.20123 -5.48125,-0.20123 h -5.09213 v -1.58056 -1.58057 l 4.98222,0.002 c 5.43709,0.003 6.27724,0.0878 7.51558,0.76175 2.20715,1.20128 3.61056,4.09301 3.16877,6.52929 -0.20791,1.14657 -0.48158,1.82187 -1.13041,2.7894 l -0.54024,0.80559 0.72193,0.70626 c 1.5922,1.55764 2.344,3.36101 2.33913,5.61098 -0.005,2.09026 -0.72735,3.83687 -2.2134,5.34836 -0.97995,0.99672 -2.36455,1.76152 -3.6833,2.03451 -0.45388,0.094 -2.69384,0.15077 -5.94431,0.15077 h -5.21597 z m 53.32692,0.035 v -1.51016 l 1.11368,-0.1575 c 1.50849,-0.21333 2.59683,-0.72245 3.36079,-1.57216 1.40478,-1.56245 1.29455,-3.83995 -0.2441,-5.04368 -0.65352,-0.51126 -2.02119,-1.0456 -4.91128,-1.9188 -4.05242,-1.22438 -5.57914,-2.0942 -6.56325,-3.73929 -1.85952,-3.10847 -0.58795,-7.18912 2.74943,-8.82329 1.35333,-0.66267 2.38132,-0.91668 4.08871,-1.01028 3.11592,-0.17082 6.28875,0.99277 8.57089,3.14326 l 0.97493,0.91868 -1.17101,1.17907 -1.17101,1.17907 -0.95932,-0.93267 c -1.6512,-1.60534 -3.60526,-2.4239 -5.76974,-2.41694 -1.42655,0.005 -2.41283,0.31453 -3.28194,1.03138 -1.49143,1.23015 -1.58089,3.82653 -0.17289,5.01758 0.65509,0.55416 1.53519,0.9056 4.76052,1.901 1.62523,0.50158 3.46332,1.1561 4.08464,1.45449 2.05768,0.98818 3.30931,2.61324 3.63721,4.72237 0.65012,4.18177 -2.71165,7.49466 -8.11481,7.99683 l -0.98145,0.0912 z M 114.895,148.75259 v -12.36964 h 1.7859 1.78589 l 0.0352,10.82344 0.0352,10.82344 6.21919,0.0358 6.21918,0.0358 v 1.51045 1.51044 h -8.04027 -8.04027 z m 25.56394,12.2429 c -2.39907,-0.34746 -3.9193,-1.05128 -5.36671,-2.48462 -1.17369,-1.16229 -1.84017,-2.34908 -2.35855,-4.19991 -0.29846,-1.06564 -0.30681,-1.29465 -0.35146,-9.64722 l -0.0457,-8.55567 h 1.86219 1.86219 l 0.002,8.07463 c 0.003,8.76894 0.0294,9.14269 0.76735,10.70261 1.11094,2.34834 3.55224,3.49481 6.54243,3.07243 1.95148,-0.27566 3.41624,-1.2646 4.21316,-2.84452 0.69563,-1.3791 0.74279,-1.68969 0.83028,-5.46726 l 0.0828,-3.57345 1.82109,-0.0383 1.82109,-0.0383 -0.005,3.26821 c -0.003,2.11731 -0.07,3.63119 -0.1899,4.299 -0.40283,2.24323 -1.59703,4.40845 -3.06275,5.5531 -0.92644,0.72351 -2.41633,1.40978 -3.62049,1.66768 -1.19994,0.25699 -3.72392,0.3682 -4.80451,0.21169 z m 39.58288,-5.37483 v -5.50161 l 1.82108,0.0383 1.82109,0.0383 0.0359,5.46327 0.0359,5.46326 h -1.85702 -1.85703 z m 8.45259,-6.75949 c -4.61113,-6.73907 -8.40449,-12.30356 -8.42969,-12.36552 -0.0252,-0.062 0.93832,-0.11267 2.14114,-0.11267 h 2.18695 l 6.58633,9.76576 6.58634,9.76576 0.0687,-9.7314 0.0687,-9.7314 h 1.78673 1.78672 l 0.0351,12.33529 0.0351,12.33528 -2.23414,-0.004 -2.23415,-0.004 z m -83.90744,-0.38342 v -1.51185 h 4.46681 94.78482 v 1.51185 1.51184 h -94.78482 -4.46681 z m -31.519706,1.28277 c -0.0504,-0.0504 -0.0916,-0.73072 -0.0916,-1.51184 v -1.42022 h 7.078182 7.07819 v 1.51184 1.51185 h -6.98656 c -3.84261,0 -7.027792,-0.0412 -7.078192,-0.0916 z"
             id="path9-6" /><path
             id="path10-2"
             style="display:inline;fill:#ffffff;stroke-width:0.389595"
             d="m 105.09375,151.57812 c 30.45573,10e-6 60.91146,0 91.36719,0 0,-2.0664 0,-4.13281 0,-6.19921 -30.45573,0 -60.91146,0 -91.36719,0 0,2.0664 0,4.13281 0,6.19921 z" /><path
             d="m 104.58697,148.47775 v -1.46914 h 4.34064 87.2112 v 1.46914 1.46913 h -87.2112 -4.34064 z"
             style="display:inline;fill:url(#linearGradient23);fill-opacity:1;stroke-width:0.378589"
             id="path1-0" /><path
             d="m 202.6915,148.49998 v -1.45802 h 0.14771 2.96774 v 1.45802 1.45802 h -2.96774 -0.14771 z"
             style="display:none;fill:#000000;stroke-width:0.069574"
             id="path11-7" /><path
             id="path12-8"
             style="display:inline;fill:#ffffff;stroke-width:1.873"
             d="m 177.50544,140.10876 -5.28701,4.54391 c 1.58171,2.42807 1.37138,5.78263 -0.26975,8.12405 h 7.62589 c 1.29954,-4.23722 0.62639,-9.09774 -2.06913,-12.66796 z" /><path
             id="path13-7"
             style="display:inline;fill:#000000;stroke-width:1.873"
             d="m 165.96816,135.83822 v 3.73982 a 8.9344444,8.9218016 0 0 1 8.93434,8.92194 8.9344444,8.9218016 0 0 1 -8.93434,8.92194 v 3.73982 a 12.679642,12.661699 0 0 0 12.67933,-12.66176 12.679642,12.661699 0 0 0 -12.67933,-12.66176 z" /><path
             id="rect13"
             style="fill:#ffffff;stroke-width:1.67117"
             d="m 146.77148,144.91566 c 0,2.22082 0,4.44164 0,6.66246 2.30534,0 4.61068,0 6.91602,0 0,-2.38997 0,-4.77995 0,-7.16992 -2.30534,0 -4.61068,0 -6.91602,0 0,0.16916 0,0.33831 0,0.50746 z" /><rect
             style="fill:#000000;stroke-width:1.86897"
             id="rect14"
             width="3.7398632"
             height="5.5822139"
             x="148.35927"
             y="145.99591" /><path
             id="path1-3"
             style="fill:#ffffff;stroke-width:0.389595"
             d="m 112.27539,144.09957 v 18.36918 h 19.25586 v -6.18555 c -4.14777,-0.0259 -8.29557,-0.0479 -12.44336,-0.0723 -0.0235,-7.2194 -0.0464,-5.42127 -0.0703,-12.64067 h -6.74219 v 0.5293 z" /><path
             d="m 113.86354,148.51073 v -12.36964 h 1.7859 1.78589 l 0.0352,10.82344 0.0352,10.82344 6.21919,0.0358 6.21918,0.0358 v 1.51045 1.51044 h -8.04027 -8.04027 z"
             style="fill:#000000;stroke-width:0.389595"
             id="path14" /><path
             id="path16-3"
             style="fill:#ffffff;stroke-width:1.798"
             d="m 20.701172,145.76953 c 0,1.88998 0,3.77995 0,5.66992 19.820366,0 39.640733,0 59.4611,0 10e-7,-2.0664 0,-4.13281 0,-6.19922 -19.820367,0 -39.640734,0 -59.4611,0 0,0.17644 0,0.35287 0,0.5293 z" /><path
             id="rect15"
             style="fill:url(#linearGradient20);fill-opacity:1;stroke-width:1.873"
             d="m 22.289384,146.82846 h 61.34937 v 3.02369 h -61.34937 z" /><path
             id="path15-4"
             style="fill:#ffffff;stroke-width:0.389595"
             d="m 10.625,135.59375 c -1.2747397,-0.001 -2.5494785,-0.004 -3.8242188,-0.004 0,2.10938 0,4.21875 0,6.32813 3.8411378,0.0996 7.7073068,-0.15839 11.5312498,0.16601 0.754943,0.74 0.649319,2.09594 0.04102,2.88477 -0.679314,0.52168 -1.580692,0.11637 -2.364063,0.24023 -3.069401,0 -6.1388017,0 -9.2082028,0 1e-7,2.06641 0,4.13282 0,6.19922 3.9331538,0.0333 7.8859578,-0.0736 11.8066408,0.0645 1.96167,0.99952 2.131578,4.12658 0.460937,5.46484 -1.023681,0.5757 -2.242968,0.19277 -3.356191,0.31689 -2.970463,0.0244 -5.9409172,0.0501 -8.9113868,0.0737 1e-7,2.06251 0,4.125 0,6.1875 4.5301608,-0.14019 9.0924058,0.25396 13.5981948,-0.33184 4.622301,-1.21371 7.690618,-6.49913 6.374918,-11.11079 -0.38322,-1.57845 -1.21214,-3.0397 -2.326628,-4.21752 1.115629,-1.82619 1.615261,-4.06747 1.041015,-6.16211 -0.755495,-3.19033 -3.630786,-5.9745 -7.012487,-5.98431 -2.614057,-0.14512 -5.233825,-0.12108 -7.850794,-0.1153 z" /><path
             d="m 8.3888902,160.41035 v -1.50574 l 5.2611388,-0.0405 5.26114,-0.0405 0.68316,-0.35159 c 1.37263,-0.70643 2.191909,-2.28263 2.174729,-4.18394 -0.0174,-1.92261 -0.829939,-3.39109 -2.274799,-4.11109 l -0.71386,-0.35573 h -5.19576 -5.1957488 v -1.51185 -1.51184 h 5.0388588 5.03887 l 0.56875,-0.33332 c 1.9083,-1.11833 1.86134,-4.92483 -0.0731,-5.92516 -0.3211,-0.16605 -1.27925,-0.20123 -5.48125,-0.20123 H 8.3888902 v -1.58056 -1.58057 l 4.9822188,0.002 c 5.43709,0.003 6.27724,0.0878 7.51558,0.76175 2.207149,1.20128 3.610559,4.09301 3.168769,6.52929 -0.20791,1.14657 -0.48158,1.82187 -1.13041,2.7894 l -0.54024,0.80559 0.72193,0.70626 c 1.5922,1.55764 2.344,3.36101 2.33913,5.61098 -0.005,2.09026 -0.72735,3.83687 -2.2134,5.34836 -0.97995,0.99672 -2.364549,1.76152 -3.683299,2.03451 -0.45388,0.094 -2.69384,0.15077 -5.94431,0.15077 H 8.3888902 Z"
             style="fill:#000000;stroke-width:0.389595"
             id="path1-36" /><path
             id="path17-4"
             style="display:inline;fill:#ffffff;stroke-width:1.873"
             d="m 46.609041,145.70997 c 0.696025,1.60505 0.702068,3.43493 0.157613,5.08186 h 7.112745 c 0.279458,-1.68106 0.264871,-3.40969 -0.06563,-5.08186 z" /><path
             id="path18"
             style="display:inline;fill:#000000;stroke-width:1.873"
             d="m 42.994792,136.24078 v 3.91862 a 8.9344444,8.9218016 0 0 1 5.769157,8.34058 8.9344444,8.9218016 0 0 1 -5.769157,8.34058 v 3.91862 a 12.679642,12.661699 0 0 0 9.514148,-12.2592 12.679642,12.661699 0 0 0 -9.514148,-12.2592 z" /></g></g><g
         id="g32"
         transform="translate(5.156108,-165.51101)"
         style="fill:#ffffff"><path
           id="rect7"
           style="fill:#ffffff;stroke-width:0.353999"
           d="m 159.63057,213.09139 v 32.40835 h 5.95157 v -5.29476 h -0.65629 v -21.81831 h 0.52917 21.28707 v 10.43037 h 5.29683 v -15.72565 z m 27.11152,23.7355 v 3.37809 H 173.6292 v 5.29476 h 18.40972 v -8.67285 z" /><path
           id="path19"
           style="fill:#ffffff;stroke-width:0.353999"
           d="m 150.01875,222.35439 v 32.40784 h 32.40836 v -7.88531 h -5.29684 v 2.59054 h -21.81624 v -21.81831 h 0.52917 2.33319 v -5.29476 z m 16.20418,0 v 5.29476 h 10.90734 v 11.21792 h 5.29684 v -16.51268 z" /><path
           id="path20"
           style="fill:#ffffff;stroke-width:0.353999"
           d="m 167.00738,230.12239 v 17.9896 h 5.29528 v -12.69484 h 0.52917 2.79879 v -5.29476 z m 16.6703,0 v 5.29476 h 10.44122 v 21.81883 h -21.81624 v -1.11415 h -5.29528 v 6.40892 h 32.40835 v -32.40836 z" /></g><g
         id="g4"
         transform="translate(-25.755119,-3.9157825)"><path
           id="text41"
           style="font-size:35.2777px;font-family:'';-inkscape-font-specification:'';letter-spacing:-2.88925px;word-spacing:0px;stroke-width:0.354"
           d="m 163.9347,176.46933 c -0.58796,0 -1.03527,0.12939 -1.34101,0.38809 -0.42333,0.3763 -0.70535,0.66993 -0.84646,0.8816 -0.14111,0.18815 -0.31749,0.55307 -0.52916,1.09399 0.35277,0 0.62317,0.11725 0.81132,0.35244 0.21167,0.23518 0.31781,0.77648 0.31781,1.62315 v 20.84886 c 0.42333,0.0235 0.91711,-0.0589 1.48156,-0.24701 0.34824,-0.11144 0.65464,-0.25041 0.92863,-0.41135 l 0.1297,-0.0119 c 1.5287,-0.28222 3.33961,-0.42323 5.43275,-0.42323 1.05833,0 2.15204,0.047 3.28093,0.14107 0.49389,0.047 0.86992,0.094 1.12862,0.14108 0.21167,0.0235 0.42343,0.0468 0.6351,0.0703 0.23519,0.0235 0.47019,0.0357 0.70538,0.0357 0.54092,0 0.97609,-0.15315 1.30535,-0.45889 v -0.0351 c 0.42333,-0.39981 0.94088,-1.04675 1.55236,-1.94045 0.61148,-0.8702 0.85811,-1.29319 0.74052,-1.26969 -1.50518,0.21167 -2.98654,0.31729 -4.44469,0.31729 -0.54092,0 -1.32887,-0.0233 -2.36368,-0.0703 -1.27,-0.0471 -2.29295,-0.0592 -3.06906,-0.0357 -1.59926,-0.0235 -2.7046,0.0118 -3.31608,0.10593 -0.32289,0.0388 -0.54615,0.0604 -0.7059,0.0708 v -7.43882 c 1.24671,-0.16694 2.60906,-0.25218 4.09226,-0.25218 0.94074,0 1.97583,0.047 3.10472,0.14107 0.32926,0.0235 0.61128,0.0588 0.84646,0.10594 0.25871,0.0235 0.48209,0.0473 0.67024,0.0708 0.61148,0.0941 1.01126,0.14107 1.19941,0.14107 0.42333,0 0.77612,-0.12938 1.05834,-0.38809 0.56445,-0.5174 1.26999,-1.49336 2.11666,-2.92798 0.14116,-0.21167 0.21188,-0.35263 0.21188,-0.42323 0,-0.047 -0.0238,-0.0708 -0.0708,-0.0708 -0.0941,0 -0.2467,0.0354 -0.45837,0.10594 -0.58797,0.18811 -1.54068,0.28215 -2.85771,0.28215 -0.61148,0 -1.57581,-0.0233 -2.89284,-0.0703 -0.30574,0 -0.84653,-0.0122 -1.62264,-0.0357 -0.77611,-0.0471 -1.44629,-0.0586 -2.01073,-0.0351 -1.64629,-0.0235 -2.69301,0.0118 -3.13986,0.10594 -0.10605,0.0168 -0.16349,0.0221 -0.24702,0.0336 v -5.96605 c 1.27379,-0.15861 2.63545,-0.24081 4.09226,-0.24081 1.03481,0 2.09315,0.047 3.175,0.14108 0.25871,0.0235 0.48209,0.0468 0.67024,0.0703 0.21167,0.0235 0.38806,0.0473 0.52917,0.0708 0.49389,0.0705 0.90581,0.10593 1.23507,0.10593 0.51741,0 0.96419,-0.15315 1.34048,-0.45888 0.28222,-0.21167 0.52886,-0.4937 0.74053,-0.84646 0.21167,-0.35278 0.38805,-0.71771 0.52916,-1.09399 0.16463,-0.37629 0.28245,-0.63456 0.35295,-0.77567 0.0705,-0.18812 0.10594,-0.30585 0.10594,-0.35295 0,-0.0705 -0.047,-0.10593 -0.14108,-0.10593 l -0.52916,0.0703 c -0.82315,0.11759 -1.68186,0.17673 -2.57556,0.17673 l -2.50475,-0.0351 c -1.26999,-0.0706 -2.45772,-0.0943 -3.56309,-0.0708 -1.48166,0 -2.55162,0.047 -3.21014,0.14108 -0.10591,0.0118 -0.15681,0.0122 -0.24702,0.0207 v -0.0558 c -0.0235,-0.42333 -0.21153,-0.74074 -0.5643,-0.9524 -0.35278,-0.23519 -0.7758,-0.35295 -1.26969,-0.35295 z m 54.30624,0.48886 c -1.83843,0 -3.37046,0.17298 -4.5961,0.51935 -1.22561,0.34637 -2.1846,0.75961 -2.87734,1.2392 -0.6661,0.13322 -1.09249,0.5596 -1.27899,1.27899 -0.15985,0.71939 -0.23978,1.27878 -0.23978,1.67845 0,0.63945 0.2529,0.90601 0.75912,0.79944 3.06407,-1.199 5.96832,-1.79886 8.71265,-1.79886 2.10488,0 3.9303,0.37328 5.47563,1.11931 1.54536,0.74603 2.71727,1.77176 3.51659,3.07733 0.82595,1.30555 1.2392,2.78452 1.2392,4.43642 0,1.54535 -0.37328,2.97067 -1.11932,4.27623 -0.74601,1.30556 -1.97155,2.37126 -3.67677,3.19722 -1.70521,0.82596 -3.91655,1.2392 -6.63422,1.2392 -4.38206,0.19163 -7.37507,-1.81609 -9.27747,-5.55056 -2.0226,-3.59833 -4.13929,-7.7377 -6.35,-12.41785 l -0.42323,-0.88212 c -0.0139,-0.0232 -0.0288,-0.0389 -0.0429,-0.061 0.002,-0.0246 0.008,-0.0587 0.008,-0.0801 0,-0.70556 -0.3174,-1.17611 -0.9524,-1.41129 -0.21167,-0.0705 -0.43558,-0.10542 -0.67076,-0.10542 -0.49389,0 -0.98767,0.15263 -1.48156,0.45837 -0.49389,0.30574 -0.84668,0.61152 -1.05834,0.91726 0.14111,-0.0236 0.29426,-3.4e-4 0.45889,0.0703 0.16465,0.0706 0.24701,0.19994 0.24701,0.38809 0,0.0705 -0.0121,0.12963 -0.0357,0.17673 -1.19944,3.78647 -2.56356,7.26726 -4.09226,10.44226 -1.50519,3.17498 -2.89255,5.73845 -4.16254,7.69049 -1.27,1.92849 -2.14033,2.9747 -2.61069,3.13934 1.10536,0.5174 2.08132,0.77618 2.92799,0.77618 0.63499,0 1.10554,-0.15263 1.41128,-0.45837 0.47037,-0.39982 1.24669,-1.51678 2.32854,-3.35122 0.59177,-1.00343 1.22581,-2.21534 1.89497,-3.59874 h 9.09092 c 0.1476,0.29211 0.26826,0.61905 0.4439,0.88211 3.91084,5.85716 7.14227,6.55759 13.26586,6.6921 3.08996,0.0679 5.71526,-0.51944 7.87342,-1.55856 2.15818,-1.03912 3.78328,-2.49126 4.87567,-4.35632 1.09241,-1.86509 1.63866,-4.03644 1.63866,-6.51434 0,-1.97164 -0.5063,-3.85017 -1.51877,-5.63531 -1.01247,-1.78516 -2.41148,-3.26409 -4.19664,-4.43642 -1.75851,-1.19898 -3.73008,-1.90508 -5.91489,-2.11822 -0.95916,-0.10661 -1.94497,-0.15968 -2.95744,-0.15968 z m -36.76985,0.11059 c -0.56445,0 -0.9996,0.11776 -1.30534,0.35295 -0.44685,0.39981 -0.74101,0.70559 -0.88212,0.91726 -0.14111,0.18815 -0.3175,0.55254 -0.52917,1.09347 0.35277,0.0235 0.63531,0.1529 0.84698,0.38809 0.21167,0.21167 0.31729,0.72921 0.31729,1.55236 -0.0705,8.4196 -0.10593,14.42848 -0.10593,18.02681 0,1.88147 0.0121,2.82205 0.0357,2.82205 0.44685,0.0235 0.95226,-0.0583 1.51671,-0.2465 0.58796,-0.16463 1.09337,-0.42341 1.5167,-0.77618 0.42333,-0.32926 0.6351,-0.72904 0.6351,-1.19941 -0.0361,-4.2367 -0.0596,-6.67922 -0.0868,-9.67331 1.03251,-0.13289 1.98325,-0.20464 2.83858,-0.20464 0.72907,0 1.49326,0.0354 2.29289,0.10594 l 1.23506,0.14107 c 0.65851,0.0941 1.08154,0.14108 1.26969,0.14108 0.54093,0 0.96447,-0.15263 1.27021,-0.45837 v -0.0357 c 0.28222,-0.2587 0.55261,-0.63472 0.81132,-1.12861 0.28222,-0.49389 0.49399,-0.94068 0.6351,-1.34049 0.16463,-0.42333 0.20004,-0.6351 0.10594,-0.6351 -1.29351,0.14116 -2.30485,0.21187 -3.03392,0.21187 l -1.62316,-0.0357 c -1.43463,-0.0706 -2.43383,-0.0938 -2.99827,-0.0703 -1.43794,-0.0211 -2.36412,-0.002 -2.83238,0.0527 -0.0286,-3.0359 -0.0473,-4.71056 -0.0636,-6.02031 0.98928,-0.13434 1.91111,-0.20619 2.75487,-0.20619 0.51741,0 1.34021,0.047 2.4691,0.14108 0.49389,0.0471 0.87043,0.0941 1.12913,0.14108 l 0.6351,0.0708 c 0.23519,0.0235 0.47019,0.0351 0.70538,0.0351 0.54092,0 0.97609,-0.15263 1.30535,-0.45837 0.28222,-0.28222 0.55261,-0.67038 0.81132,-1.16427 0.28222,-0.49389 0.49399,-0.94068 0.6351,-1.34048 0.16463,-0.42335 0.20004,-0.62347 0.10594,-0.59997 -1.27,0.14107 -2.25809,0.21188 -2.96364,0.21188 l -1.55185,-0.0357 c -0.79963,-0.0471 -1.48194,-0.0703 -2.04638,-0.0703 h -1.09348 c -1.64628,0 -2.65763,0.0353 -3.03392,0.10594 -0.007,10e-4 -0.009,10e-4 -0.016,0.003 -0.0937,-0.20409 -0.23666,-0.37288 -0.44287,-0.49661 -0.35278,-0.21167 -0.7758,-0.31781 -1.26969,-0.31781 z m 18.48415,6.67556 c 0.25009,0.56124 0.51502,1.15869 0.84542,1.91668 0.89464,2.08748 1.75427,3.9912 2.58641,5.75055 h -6.47868 c 0.15685,-0.3536 0.3097,-0.68651 0.47026,-1.05833 0.87901,-2.01567 1.73664,-4.23188 2.57659,-6.6089 z"
           transform="translate(-2.5019132,19.016585)" /></g><g
         id="g40"
         style="display:none"><path
           id="path33"
           style="fill:#000000;stroke-width:0.353999"
           d="m 159.63079,245.49976 c 10.80273,0 21.60546,0 32.4082,0 0,-10.80273 0,-21.60547 0,-32.4082 -10.80273,0 -21.60547,0 -32.4082,0 0,10.80273 0,21.60546 0,32.4082 z m 5.82422,-27.11328 c 7.0957,0 14.1914,0 21.2871,0 0,7.27278 0,14.54557 0,21.81836 -7.27213,0 -14.54427,0 -21.8164,0 0,-7.27279 0,-14.54558 0,-21.81836 0.17643,0 0.35286,0 0.5293,0 z" /><path
           id="path34"
           style="fill:#000000;stroke-width:0.353999"
           d="m 150.01899,254.76245 c 10.80273,0 21.60546,0 32.4082,0 0,-10.80273 0,-21.60547 0,-32.4082 -10.80273,0 -21.60547,0 -32.4082,0 0,10.80273 0,21.60546 0,32.4082 z m 5.82422,-27.11328 c 7.0957,0 14.1914,0 21.2871,0 0,7.27278 0,14.54557 0,21.81836 -7.27213,0 -14.54427,0 -21.8164,0 0,-7.27279 0,-14.54558 0,-21.81836 0.17643,0 0.35286,0 0.5293,0 z" /><path
           id="path35"
           style="fill:#000000;stroke-width:0.353999"
           d="m 167.00752,262.53068 c 10.80273,0 21.60546,0 32.4082,0 0,-10.80273 0,-21.60547 0,-32.4082 -10.80273,0 -21.60547,0 -32.4082,0 0,10.80273 0,21.60546 0,32.4082 z m 5.82422,-27.11328 c 7.0957,0 14.1914,0 21.2871,0 0,7.27278 0,14.54557 0,21.81836 -7.27213,0 -14.54427,0 -21.8164,0 0,-7.27279 0,-14.54558 0,-21.81836 0.17643,0 0.35286,0 0.5293,0 z" /><path
           id="path36"
           style="fill:#000000;stroke-width:0.353999"
           d="m 185.37089,236.82692 c 2.68229,0 5.36458,0 8.04688,0 0,-2.66992 0,-5.33985 0,-8.00978 -2.6823,0 -5.36459,0 -8.04688,0 0,2.66993 0,5.33986 0,8.00978 z" /><path
           id="path37"
           style="fill:#000000;stroke-width:0.353999"
           d="m 175.63077,236.82692 c 2.68229,0 5.36458,0 8.04688,0 0,-2.66992 0,-5.33985 0,-8.00978 -2.6823,0 -5.36459,0 -8.04688,0 0,2.66993 0,5.33986 0,8.00978 z" /><path
           id="path38"
           style="fill:#000000;stroke-width:0.353999"
           d="m 175.63077,246.87696 c 2.68229,0 5.36458,0 8.04688,0 0,-2.66992 0,-5.33985 0,-8.00978 -2.6823,0 -5.36459,0 -8.04688,0 0,2.66993 0,5.33986 0,8.00978 z" /><path
           id="path39"
           style="fill:#000000;stroke-width:0.353999"
           d="m 165.58206,246.87696 c 2.68229,0 5.36458,0 8.04688,0 0,-2.66992 0,-5.33985 0,-8.00978 -2.6823,0 -5.36459,0 -8.04688,0 0,2.66993 0,5.33986 0,8.00978 z" /><path
           id="path40"
           style="fill:#000000;stroke-width:0.353999"
           d="m 165.58206,256.12177 c 2.68229,0 5.36458,0 8.04688,0 0,-2.66992 0,-5.33985 0,-8.00978 -2.6823,0 -5.36459,0 -8.04688,0 0,2.66993 0,5.33986 0,8.00978 z" /></g><g
         id="g5"
         transform="translate(1.1758305e-4,4.1480557)"><path
           d="m 6.9992886,170.8657 v 5.4356 H 24.880888 c 3.5052,0.2032 6.35,3.81 6.35,8.1788 0,4.5212 -2.9972,8.1788 -6.6548,8.1788 H 6.9992886 v 5.4356 H 24.576088 c 7.2644,0 13.208,-6.096 13.208,-13.6144 0,-4.7244 -2.286,-8.89 -5.7912,-11.3284 2.0828,-2.0828 3.3528,-5.0292 3.3528,-8.2296 0,-6.1468 -4.7752,-11.2776 -10.7696,-11.2776 H 6.9992886 v 5.4864 H 24.576088 c 2.286,0 4.2164,2.6416 4.2164,5.7912 0,3.0988 -1.778,5.7404 -4.0132,5.9436 h -0.2032 z m 18.2281794,0 v 5.4356 h 17.8816 c 3.5052,0.2032 6.35,3.81 6.35,8.1788 0,4.5212 -2.9972,8.1788 -6.6548,8.1788 h -17.5768 v 5.4356 h 17.5768 c 7.2644,0 13.208,-6.096 13.208,-13.6144 0,-4.7244 -2.286,-8.89 -5.7912,-11.3284 2.0828,-2.0828 3.3528,-5.0292 3.3528,-8.2296 0,-6.1468 -4.7752,-11.2776 -10.7696,-11.2776 h -17.5768 v 5.4864 h 17.5768 c 2.286,0 4.2164,2.6416 4.2164,5.7912 0,3.0988 -1.778,5.7404 -4.0132,5.9436 h -0.2032 z"
           id="text1"
           style="font-size:50.8px;font-family:ABSTER;-inkscape-font-specification:ABSTER;letter-spacing:-15.1474px;word-spacing:0px;stroke-width:1.873"
           aria-label="BB  C" /><path
           id="rect41"
           style="display:inline;fill:#000000;stroke-width:0.353999"
           d="m 42.804106,153.64437 v 0.58239 c 4.296846,1.50706 7.35924,5.77421 7.35924,10.69547 0,3.2004 -1.269969,6.14668 -3.352767,8.22947 3.505197,2.4384 5.790861,6.60412 5.790861,11.32851 0,6.29864 -4.172463,11.59659 -9.797334,13.15062 v 0.46354 h 34.45216 c -11.770376,0 -21.244181,-9.28245 -21.244181,-21.48344 0,-12.10531 9.473805,-21.43539 21.244181,-21.43539 3.11006,0 6.12468,0.57405 8.804114,1.72238 l -2.440161,4.68912 c -1.961729,-0.8134 -4.162987,-1.24386 -6.363953,-1.24386 -8.660317,0 -15.071948,7.70311 -15.071948,16.26775 0,7.89477 5.78962,16.36385 15.071948,16.36385 2.200966,0 4.689054,-0.47832 6.890019,-1.48311 l 1.579232,5.07153 c -2.583742,1.05262 -5.454886,1.53117 -8.469251,1.53117 H 88.14139 v -44.45 z" /></g><g
         id="g3"
         transform="translate(-39.693029,-227.92999)"><path
           id="text42"
           style="font-style:normal;font-variant:normal;font-weight:normal;font-stretch:normal;font-size:35.2777px;font-family:'';-inkscape-font-specification:'';letter-spacing:-2.88925px;word-spacing:0px;fill:#000000;stroke-width:0.353999"
           d="m 44.228825,270.92972 v 19.71559 h 2.610693 V 273.2934 h 3.63337 c 3.951098,0 6.420838,0.49399 8.396387,1.69343 2.998601,1.79916 4.72736,5.07964 4.72736,8.96018 0,2.55785 -0.750455,4.87872 -2.130619,6.6983 h 3.198254 c 1.051798,-1.89757 1.578198,-4.12968 1.578198,-6.59236 0,-4.9036 -2.046227,-8.7838 -5.92677,-11.07685 -2.469436,-1.48166 -5.221023,-2.04638 -9.94823,-2.04638 z m 53.738839,0.21187 v 4.44469 h 2.610176 v -4.44469 z m -21.561992,6.10299 c -5.609148,0 -10.019026,4.40987 -10.019026,10.01902 0,1.19259 0.205152,2.32615 0.565856,3.38171 h 2.645317 c -0.337906,-0.75432 -0.55275,-1.57017 -0.60048,-2.42931 h 17.4625 c 0,-6.84387 -4.339185,-10.97142 -10.054167,-10.97142 z m 15.349451,0 c -3.139712,0 -5.467883,2.29303 -5.467883,5.43274 0,1.37583 0.493409,2.57521 1.445906,3.45715 0.776109,0.74083 0.84671,0.77605 3.56309,1.86966 2.197751,0.89022 3.243353,1.48291 3.592029,2.64118 h 2.744019 c -0.231474,-1.92521 -1.314761,-3.28433 -3.302124,-4.12275 -2.928047,-1.19944 -3.068928,-1.27014 -3.63337,-1.55236 -1.199441,-0.59972 -1.764234,-1.41101 -1.764234,-2.53989 0,-1.55222 1.23521,-2.78691 2.787427,-2.78691 1.693328,0 2.82205,0.98761 2.82205,2.82205 h 2.645833 c 0,-3.10444 -2.328309,-5.22087 -5.432743,-5.22087 z m 19.515607,0 c -5.64443,0 -9.87795,4.37442 -9.87795,10.19524 0,5.64443 4.40974,10.01903 10.05416,10.01903 3.45722,0 5.85626,-1.41161 7.3732,-4.37493 v 1.30535 c 0,5.07998 -2.43439,7.79642 -7.09104,7.79642 -3.24555,0 -5.11498,-1.09328 -7.09053,-4.58577 h -2.53989 c 1.4111,4.51554 4.8329,6.98459 9.70121,6.98459 3.35138,0 6.17352,-1.26994 7.83157,-3.45715 1.30527,-1.76389 1.79937,-3.80984 1.79937,-7.58455 v -15.83986 h -2.61069 v 3.42201 c -1.94027,-2.64583 -4.30387,-3.88038 -7.54941,-3.88038 z m 20.53518,0 c -2.53999,0 -4.58615,0.98757 -6.20893,2.96312 v -2.50475 h -2.61069 v 19.29701 h 2.61069 v -10.61847 c 0,-4.72721 2.39863,-6.73809 5.89112,-6.73809 3.56304,0 5.96242,1.97574 5.96242,7.23211 v 10.12445 h 2.61018 v -10.12445 c 0,-6.77331 -3.42175,-9.63093 -8.25479,-9.63093 z m -33.838246,0.45837 v 12.94236 h 2.610176 v -12.94236 z m -21.597132,1.94045 c 3.739433,0 6.596672,2.36365 7.478614,6.20892 h -14.78101 c 0.705553,-3.70416 3.633519,-6.20892 7.302396,-6.20892 z m 35.041268,0 c 4.16277,0 7.40834,3.28057 7.40834,7.47861 0,4.51554 -3.17515,7.9375 -7.3732,7.9375 -4.23332,0 -7.40833,-3.3513 -7.40833,-7.83156 0,-4.40971 3.1046,-7.58455 7.37319,-7.58455 z" /><path
           id="text2"
           style="font-size:10.5833px;font-family:'TeX Gyre Adventor';-inkscape-font-specification:'TeX Gyre Adventor';letter-spacing:0px;word-spacing:0px;stroke-width:0.353999"
           d="m 47.570312,292.36914 a 0.22048054,0.22048054 0 0 0 -0.220703,0.2207 v 7.82032 a 0.22048054,0.22048054 0 0 0 0.220703,0.2207 h 4.275391 a 0.22048054,0.22048054 0 0 0 0.220703,-0.2207 v -0.70899 a 0.22048054,0.22048054 0 0 0 -0.220703,-0.2207 h -3.271484 v -2.44727 h 3.15625 a 0.22048054,0.22048054 0 0 0 0.220703,-0.2207 v -0.70898 a 0.22048054,0.22048054 0 0 0 -0.220703,-0.22071 h -3.15625 v -2.36328 h 3.271484 a 0.22048054,0.22048054 0 0 0 0.220703,-0.2207 v -0.70899 a 0.22048054,0.22048054 0 0 0 -0.220703,-0.2207 z m 27.898438,0 a 0.22048054,0.22048054 0 0 0 -0.220703,0.2207 v 1.81055 H 74.21875 a 0.22048054,0.22048054 0 0 0 -0.07227,0.0723 0.22048054,0.22048054 0 0 0 -0.15039,-0.0723 h -0.835938 a 0.22048054,0.22048054 0 0 0 -0.203125,0.13477 l -1.746094,4.11914 -1.634765,-4.11524 a 0.22048054,0.22048054 0 0 0 -0.205078,-0.13867 h -0.855469 a 0.22048054,0.22048054 0 0 0 -0.205078,0.30273 l 2.208984,5.51563 -0.90625,2.13867 a 0.22048054,0.22048054 0 0 0 0.203125,0.30664 h 0.835938 a 0.22048054,0.22048054 0 0 0 0.203125,-0.13476 l 3.142578,-7.35157 v 0.15235 a 0.22048054,0.22048054 0 0 0 0.220703,0.2207 h 1.029297 v 4.85938 a 0.22048054,0.22048054 0 0 0 0.220703,0.2207 h 0.783203 a 0.22048054,0.22048054 0 0 0 0.220703,-0.2207 v -4.85938 h 1.080078 a 0.22048054,0.22048054 0 0 0 0.220703,-0.2207 v -0.70899 a 0.22048054,0.22048054 0 0 0 -0.220703,-0.2207 h -1.080078 v -1.81055 a 0.22048054,0.22048054 0 0 0 -0.220703,-0.2207 z m 2.876953,0 a 0.22048054,0.22048054 0 0 0 -0.220703,0.2207 v 7.82032 a 0.22048054,0.22048054 0 0 0 0.220703,0.2207 h 0.785156 a 0.22048054,0.22048054 0 0 0 0.220703,-0.2207 v -3.17383 c 0,-0.66969 0.17688,-1.11504 0.445313,-1.39649 0.268433,-0.28144 0.641856,-0.41601 1.099609,-0.41601 0.483588,0 0.860547,0.14245 1.128907,0.43554 0.268359,0.2931 0.439453,0.7571 0.439453,1.43946 v 3.11133 a 0.22048054,0.22048054 0 0 0 0.220703,0.2207 h 0.783203 a 0.22048054,0.22048054 0 0 0 0.220703,-0.2207 v -3.11133 c 0,-1.00614 -0.261289,-1.77275 -0.746094,-2.28516 -0.484804,-0.5124 -1.178325,-0.75 -1.972656,-0.75 -0.628752,0 -1.191674,0.19234 -1.619141,0.54688 v -2.22071 a 0.22048054,0.22048054 0 0 0 -0.220703,-0.2207 z m 6.457031,0.0625 a 0.22048054,0.22048054 0 0 0 -0.220703,0.2207 v 1.33399 a 0.22048054,0.22048054 0 0 0 0.220703,0.2207 h 0.783203 a 0.22048054,0.22048054 0 0 0 0.220704,-0.2207 v -1.33399 a 0.22048054,0.22048054 0 0 0 -0.220704,-0.2207 z m -23.314453,1.83203 c -1.798303,0 -3.226562,1.42826 -3.226562,3.22656 0,1.82971 1.449584,3.2793 3.279297,3.2793 1.417859,0 2.621858,-1.0001 3.023437,-2.19336 a 0.22048054,0.22048054 0 0 0 -0.208984,-0.29101 h -0.814453 a 0.22048054,0.22048054 0 0 0 -0.203125,0.13671 c -0.292046,0.70657 -1.028376,1.18555 -1.81836,1.18555 -0.985887,0 -1.79869,-0.706 -1.972656,-1.61133 h 4.957031 a 0.22048054,0.22048054 0 0 0 0.220703,-0.2207 c 0,-1.07315 -0.343113,-1.95706 -0.925781,-2.56836 -0.582668,-0.6113 -1.400244,-0.94336 -2.310547,-0.94336 z m 6.50586,0 c -0.598537,0.0303 -1.059343,0.2137 -1.40625,0.53711 v -0.17969 a 0.22048054,0.22048054 0 0 0 -0.220704,-0.2207 h -0.783203 a 0.22048054,0.22048054 0 0 0 -0.220703,0.2207 v 5.78907 a 0.22048054,0.22048054 0 0 0 0.220703,0.2207 h 0.783203 a 0.22048054,0.22048054 0 0 0 0.220704,-0.2207 v -3.375 c 0,-0.5024 0.123256,-0.85775 0.351562,-1.10547 0.228307,-0.24773 0.578794,-0.40566 1.087891,-0.45508 a 0.22048054,0.22048054 0 0 0 0.199218,-0.21875 v -0.77149 a 0.22048054,0.22048054 0 0 0 -0.232421,-0.2207 z m 21.570312,0 c -0.629554,0 -1.182563,0.20231 -1.642578,0.58203 v -0.22461 a 0.22048054,0.22048054 0 0 0 -0.220703,-0.2207 h -0.78125 a 0.22048054,0.22048054 0 0 0 -0.220703,0.2207 v 5.78907 a 0.22048054,0.22048054 0 0 0 0.220703,0.2207 h 0.78125 a 0.22048054,0.22048054 0 0 0 0.220703,-0.2207 v -3.18555 c 0,-0.67168 0.168769,-1.11367 0.431641,-1.39063 0.262871,-0.27695 0.635631,-0.41015 1.117187,-0.41015 0.493686,0 0.866695,0.13054 1.130859,0.42187 0.264165,0.29133 0.435547,0.77236 0.435547,1.52735 v 3.03711 a 0.22048054,0.22048054 0 0 0 0.220703,0.2207 h 0.783204 a 0.22048054,0.22048054 0 0 0 0.220703,-0.2207 v -3.03711 c 0,-1.05313 -0.268101,-1.83804 -0.753907,-2.35743 -0.485805,-0.51938 -1.174985,-0.75195 -1.943359,-0.75195 z m 6.550781,0 c -1.807229,0 -3.183593,1.42621 -3.183593,3.2793 0,1.8081 1.429082,3.22656 3.236328,3.22656 0.803501,0 1.457864,-0.26593 1.943359,-0.77734 -0.05303,0.52322 -0.184207,0.95304 -0.433594,1.22851 -0.309415,0.34178 -0.768248,0.52539 -1.423828,0.52539 -0.461983,0 -0.79438,-0.0754 -1.08789,-0.26172 -0.293511,-0.18633 -0.561119,-0.49735 -0.847657,-1.0039 a 0.22048054,0.22048054 0 0 0 -0.191406,-0.11133 h -0.761719 a 0.22048054,0.22048054 0 0 0 -0.210937,0.28711 c 0.446762,1.42964 1.586028,2.25 3.121094,2.25 1.061097,0 1.980026,-0.40558 2.52539,-1.125 a 0.22048054,0.22048054 0 0 0 0.002,-0.002 c 0.424329,-0.57342 0.582033,-1.2547 0.582032,-2.40625 v -4.75196 a 0.22048054,0.22048054 0 0 0 -0.220704,-0.2207 h -0.783203 a 0.22048054,0.22048054 0 0 0 -0.220703,0.2207 v 0.45508 c -0.551536,-0.53389 -1.222242,-0.8125 -2.044922,-0.8125 z m -43.591797,0.13672 a 0.22048054,0.22048054 0 0 0 -0.203125,0.30664 l 2.433594,5.78906 a 0.22048054,0.22048054 0 0 0 0.203125,0.13477 h 0.826172 a 0.22048054,0.22048054 0 0 0 0.203125,-0.13477 l 2.433594,-5.78906 a 0.22048054,0.22048054 0 0 0 -0.203125,-0.30664 h -0.792969 a 0.22048054,0.22048054 0 0 0 -0.203125,0.13477 l -1.869141,4.38867 -1.832031,-4.38672 a 0.22048054,0.22048054 0 0 0 -0.203125,-0.13672 z m 32.279297,0 a 0.22048054,0.22048054 0 0 0 -0.220703,0.2207 v 5.78907 a 0.22048054,0.22048054 0 0 0 0.220703,0.2207 h 0.783203 a 0.22048054,0.22048054 0 0 0 0.220704,-0.2207 v -5.78907 a 0.22048054,0.22048054 0 0 0 -0.220704,-0.2207 z m -23.326172,1.02344 c 0.932136,0 1.618313,0.5292 1.925782,1.42187 h -3.804688 c 0.272727,-0.86009 0.972984,-1.42187 1.878906,-1.42187 z m 34.681641,0 c 1.132935,0 2.001953,0.87767 2.001953,2.02344 0,1.25121 -0.852533,2.16015 -1.992187,2.16015 -1.153629,0 -2,-0.88878 -2,-2.1289 0,-1.21955 0.818975,-2.05469 1.990234,-2.05469 z" /></g><rect
         style="display:none;fill:url(#linearGradient11);fill-opacity:1;stroke-width:0.353999"
         id="rect10"
         width="210"
         height="297"
         x="0"
         y="0" /></g></g><script
     id="mesh_polyfill"
     type="text/javascript">
!function(){const t=&quot;http://www.w3.org/2000/svg&quot;,e=&quot;http://www.w3.org/1999/xlink&quot;,s=&quot;http://www.w3.org/1999/xhtml&quot;,r=2;if(document.createElementNS(t,&quot;meshgradient&quot;).x)return;const n=(t,e,s,r)=&gt;{let n=new x(.5*(e.x+s.x),.5*(e.y+s.y)),o=new x(.5*(t.x+e.x),.5*(t.y+e.y)),i=new x(.5*(s.x+r.x),.5*(s.y+r.y)),a=new x(.5*(n.x+o.x),.5*(n.y+o.y)),h=new x(.5*(n.x+i.x),.5*(n.y+i.y)),l=new x(.5*(a.x+h.x),.5*(a.y+h.y));return[[t,o,a,l],[l,h,i,r]]},o=t=&gt;{let e=t[0].distSquared(t[1]),s=t[2].distSquared(t[3]),r=.25*t[0].distSquared(t[2]),n=.25*t[1].distSquared(t[3]),o=e&gt;s?e:s,i=r&gt;n?r:n;return 18*(o&gt;i?o:i)},i=(t,e)=&gt;Math.sqrt(t.distSquared(e)),a=(t,e)=&gt;t.scale(2/3).add(e.scale(1/3)),h=t=&gt;{let e,s,r,n,o,i,a,h=new g;return t.match(/(\w+\(\s*[^)]+\))+/g).forEach(t=&gt;{let l=t.match(/[\w.-]+/g),d=l.shift();switch(d){case&quot;translate&quot;:2===l.length?e=new g(1,0,0,1,l[0],l[1]):(console.error(&quot;mesh.js: translate does not have 2 arguments!&quot;),e=new g(1,0,0,1,0,0)),h=h.append(e);break;case&quot;scale&quot;:1===l.length?s=new g(l[0],0,0,l[0],0,0):2===l.length?s=new g(l[0],0,0,l[1],0,0):(console.error(&quot;mesh.js: scale does not have 1 or 2 arguments!&quot;),s=new g(1,0,0,1,0,0)),h=h.append(s);break;case&quot;rotate&quot;:if(3===l.length&amp;&amp;(e=new g(1,0,0,1,l[1],l[2]),h=h.append(e)),l[0]){r=l[0]*Math.PI/180;let t=Math.cos(r),e=Math.sin(r);Math.abs(t)&lt;1e-16&amp;&amp;(t=0),Math.abs(e)&lt;1e-16&amp;&amp;(e=0),a=new g(t,e,-e,t,0,0),h=h.append(a)}else console.error(&quot;math.js: No argument to rotate transform!&quot;);3===l.length&amp;&amp;(e=new g(1,0,0,1,-l[1],-l[2]),h=h.append(e));break;case&quot;skewX&quot;:l[0]?(r=l[0]*Math.PI/180,n=Math.tan(r),o=new g(1,0,n,1,0,0),h=h.append(o)):console.error(&quot;math.js: No argument to skewX transform!&quot;);break;case&quot;skewY&quot;:l[0]?(r=l[0]*Math.PI/180,n=Math.tan(r),i=new g(1,n,0,1,0,0),h=h.append(i)):console.error(&quot;math.js: No argument to skewY transform!&quot;);break;case&quot;matrix&quot;:6===l.length?h=h.append(new g(...l)):console.error(&quot;math.js: Incorrect number of arguments for matrix!&quot;);break;default:console.error(&quot;mesh.js: Unhandled transform type: &quot;+d)}}),h},l=t=&gt;{let e=[],s=t.split(/[ ,]+/);for(let t=0,r=s.length-1;t&lt;r;t+=2)e.push(new x(parseFloat(s[t]),parseFloat(s[t+1])));return e},d=(t,e)=&gt;{for(let s in e)t.setAttribute(s,e[s])},c=(t,e,s,r,n)=&gt;{let o,i,a=[0,0,0,0];for(let h=0;h&lt;3;++h)e[h]&lt;t[h]&amp;&amp;e[h]&lt;s[h]||t[h]&lt;e[h]&amp;&amp;s[h]&lt;e[h]?a[h]=0:(a[h]=.5*((e[h]-t[h])/r+(s[h]-e[h])/n),o=Math.abs(3*(e[h]-t[h])/r),i=Math.abs(3*(s[h]-e[h])/n),a[h]&gt;o?a[h]=o:a[h]&gt;i&amp;&amp;(a[h]=i));return a},u=[[1,0,0,0,0,0,0,0,0,0,0,0,0,0,0,0],[0,0,0,0,1,0,0,0,0,0,0,0,0,0,0,0],[-3,3,0,0,-2,-1,0,0,0,0,0,0,0,0,0,0],[2,-2,0,0,1,1,0,0,0,0,0,0,0,0,0,0],[0,0,0,0,0,0,0,0,1,0,0,0,0,0,0,0],[0,0,0,0,0,0,0,0,0,0,0,0,1,0,0,0],[0,0,0,0,0,0,0,0,-3,3,0,0,-2,-1,0,0],[0,0,0,0,0,0,0,0,2,-2,0,0,1,1,0,0],[-3,0,3,0,0,0,0,0,-2,0,-1,0,0,0,0,0],[0,0,0,0,-3,0,3,0,0,0,0,0,-2,0,-1,0],[9,-9,-9,9,6,3,-6,-3,6,-6,3,-3,4,2,2,1],[-6,6,6,-6,-3,-3,3,3,-4,4,-2,2,-2,-2,-1,-1],[2,0,-2,0,0,0,0,0,1,0,1,0,0,0,0,0],[0,0,0,0,2,0,-2,0,0,0,0,0,1,0,1,0],[-6,6,6,-6,-4,-2,4,2,-3,3,-3,3,-2,-1,-2,-1],[4,-4,-4,4,2,2,-2,-2,2,-2,2,-2,1,1,1,1]],f=t=&gt;{let e=[];for(let s=0;s&lt;16;++s){e[s]=0;for(let r=0;r&lt;16;++r)e[s]+=u[s][r]*t[r]}return e},p=(t,e,s)=&gt;{const r=e*e,n=s*s,o=e*e*e,i=s*s*s;return t[0]+t[1]*e+t[2]*r+t[3]*o+t[4]*s+t[5]*s*e+t[6]*s*r+t[7]*s*o+t[8]*n+t[9]*n*e+t[10]*n*r+t[11]*n*o+t[12]*i+t[13]*i*e+t[14]*i*r+t[15]*i*o},y=t=&gt;{let e=[],s=[],r=[];for(let s=0;s&lt;4;++s)e[s]=[],e[s][0]=n(t[0][s],t[1][s],t[2][s],t[3][s]),e[s][1]=[],e[s][1].push(...n(...e[s][0][0])),e[s][1].push(...n(...e[s][0][1])),e[s][2]=[],e[s][2].push(...n(...e[s][1][0])),e[s][2].push(...n(...e[s][1][1])),e[s][2].push(...n(...e[s][1][2])),e[s][2].push(...n(...e[s][1][3]));for(let t=0;t&lt;8;++t){s[t]=[];for(let r=0;r&lt;4;++r)s[t][r]=[],s[t][r][0]=n(e[0][2][t][r],e[1][2][t][r],e[2][2][t][r],e[3][2][t][r]),s[t][r][1]=[],s[t][r][1].push(...n(...s[t][r][0][0])),s[t][r][1].push(...n(...s[t][r][0][1])),s[t][r][2]=[],s[t][r][2].push(...n(...s[t][r][1][0])),s[t][r][2].push(...n(...s[t][r][1][1])),s[t][r][2].push(...n(...s[t][r][1][2])),s[t][r][2].push(...n(...s[t][r][1][3]))}for(let t=0;t&lt;8;++t){r[t]=[];for(let e=0;e&lt;8;++e)r[t][e]=[],r[t][e][0]=s[t][0][2][e],r[t][e][1]=s[t][1][2][e],r[t][e][2]=s[t][2][2][e],r[t][e][3]=s[t][3][2][e]}return r};class x{constructor(t,e){this.x=t||0,this.y=e||0}toString(){return`(x=${this.x}, y=${this.y})`}clone(){return new x(this.x,this.y)}add(t){return new x(this.x+t.x,this.y+t.y)}scale(t){return void 0===t.x?new x(this.x*t,this.y*t):new x(this.x*t.x,this.y*t.y)}distSquared(t){let e=this.x-t.x,s=this.y-t.y;return e*e+s*s}transform(t){let e=this.x*t.a+this.y*t.c+t.e,s=this.x*t.b+this.y*t.d+t.f;return new x(e,s)}}class g{constructor(t,e,s,r,n,o){void 0===t?(this.a=1,this.b=0,this.c=0,this.d=1,this.e=0,this.f=0):(this.a=t,this.b=e,this.c=s,this.d=r,this.e=n,this.f=o)}toString(){return`affine: ${this.a} ${this.c} ${this.e} \n       ${this.b} ${this.d} ${this.f}`}append(t){t instanceof g||console.error(&quot;mesh.js: argument to Affine.append is not affine!&quot;);let e=this.a*t.a+this.c*t.b,s=this.b*t.a+this.d*t.b,r=this.a*t.c+this.c*t.d,n=this.b*t.c+this.d*t.d,o=this.a*t.e+this.c*t.f+this.e,i=this.b*t.e+this.d*t.f+this.f;return new g(e,s,r,n,o,i)}}class w{constructor(t,e){this.nodes=t,this.colors=e}paintCurve(t,e){if(o(this.nodes)&gt;r){const s=n(...this.nodes);let r=[[],[]],o=[[],[]];for(let t=0;t&lt;4;++t)r[0][t]=this.colors[0][t],r[1][t]=(this.colors[0][t]+this.colors[1][t])/2,o[0][t]=r[1][t],o[1][t]=this.colors[1][t];let i=new w(s[0],r),a=new w(s[1],o);i.paintCurve(t,e),a.paintCurve(t,e)}else{let s=Math.round(this.nodes[0].x);if(s&gt;=0&amp;&amp;s&lt;e){let r=4*(~~this.nodes[0].y*e+s);t[r]=Math.round(this.colors[0][0]),t[r+1]=Math.round(this.colors[0][1]),t[r+2]=Math.round(this.colors[0][2]),t[r+3]=Math.round(this.colors[0][3])}}}}class m{constructor(t,e){this.nodes=t,this.colors=e}split(){let t=[[],[],[],[]],e=[[],[],[],[]],s=[[[],[]],[[],[]]],r=[[[],[]],[[],[]]];for(let s=0;s&lt;4;++s){const r=n(this.nodes[0][s],this.nodes[1][s],this.nodes[2][s],this.nodes[3][s]);t[0][s]=r[0][0],t[1][s]=r[0][1],t[2][s]=r[0][2],t[3][s]=r[0][3],e[0][s]=r[1][0],e[1][s]=r[1][1],e[2][s]=r[1][2],e[3][s]=r[1][3]}for(let t=0;t&lt;4;++t)s[0][0][t]=this.colors[0][0][t],s[0][1][t]=this.colors[0][1][t],s[1][0][t]=(this.colors[0][0][t]+this.colors[1][0][t])/2,s[1][1][t]=(this.colors[0][1][t]+this.colors[1][1][t])/2,r[0][0][t]=s[1][0][t],r[0][1][t]=s[1][1][t],r[1][0][t]=this.colors[1][0][t],r[1][1][t]=this.colors[1][1][t];return[new m(t,s),new m(e,r)]}paint(t,e){let s,n=!1;for(let t=0;t&lt;4;++t)if((s=o([this.nodes[0][t],this.nodes[1][t],this.nodes[2][t],this.nodes[3][t]]))&gt;r){n=!0;break}if(n){let s=this.split();s[0].paint(t,e),s[1].paint(t,e)}else{new w([...this.nodes[0]],[...this.colors[0]]).paintCurve(t,e)}}}class b{constructor(t){this.readMesh(t),this.type=t.getAttribute(&quot;type&quot;)||&quot;bilinear&quot;}readMesh(t){let e=[[]],s=[[]],r=Number(t.getAttribute(&quot;x&quot;)),n=Number(t.getAttribute(&quot;y&quot;));e[0][0]=new x(r,n);let o=t.children;for(let t=0,r=o.length;t&lt;r;++t){e[3*t+1]=[],e[3*t+2]=[],e[3*t+3]=[],s[t+1]=[];let r=o[t].children;for(let n=0,o=r.length;n&lt;o;++n){let o=r[n].children;for(let r=0,i=o.length;r&lt;i;++r){let i=r;0!==t&amp;&amp;++i;let h,d=o[r].getAttribute(&quot;path&quot;),c=&quot;l&quot;;null!=d&amp;&amp;(c=(h=d.match(/\s*([lLcC])\s*(.*)/))[1]);let u=l(h[2]);switch(c){case&quot;l&quot;:0===i?(e[3*t][3*n+3]=u[0].add(e[3*t][3*n]),e[3*t][3*n+1]=a(e[3*t][3*n],e[3*t][3*n+3]),e[3*t][3*n+2]=a(e[3*t][3*n+3],e[3*t][3*n])):1===i?(e[3*t+3][3*n+3]=u[0].add(e[3*t][3*n+3]),e[3*t+1][3*n+3]=a(e[3*t][3*n+3],e[3*t+3][3*n+3]),e[3*t+2][3*n+3]=a(e[3*t+3][3*n+3],e[3*t][3*n+3])):2===i?(0===n&amp;&amp;(e[3*t+3][3*n+0]=u[0].add(e[3*t+3][3*n+3])),e[3*t+3][3*n+1]=a(e[3*t+3][3*n],e[3*t+3][3*n+3]),e[3*t+3][3*n+2]=a(e[3*t+3][3*n+3],e[3*t+3][3*n])):(e[3*t+1][3*n]=a(e[3*t][3*n],e[3*t+3][3*n]),e[3*t+2][3*n]=a(e[3*t+3][3*n],e[3*t][3*n]));break;case&quot;L&quot;:0===i?(e[3*t][3*n+3]=u[0],e[3*t][3*n+1]=a(e[3*t][3*n],e[3*t][3*n+3]),e[3*t][3*n+2]=a(e[3*t][3*n+3],e[3*t][3*n])):1===i?(e[3*t+3][3*n+3]=u[0],e[3*t+1][3*n+3]=a(e[3*t][3*n+3],e[3*t+3][3*n+3]),e[3*t+2][3*n+3]=a(e[3*t+3][3*n+3],e[3*t][3*n+3])):2===i?(0===n&amp;&amp;(e[3*t+3][3*n+0]=u[0]),e[3*t+3][3*n+1]=a(e[3*t+3][3*n],e[3*t+3][3*n+3]),e[3*t+3][3*n+2]=a(e[3*t+3][3*n+3],e[3*t+3][3*n])):(e[3*t+1][3*n]=a(e[3*t][3*n],e[3*t+3][3*n]),e[3*t+2][3*n]=a(e[3*t+3][3*n],e[3*t][3*n]));break;case&quot;c&quot;:0===i?(e[3*t][3*n+1]=u[0].add(e[3*t][3*n]),e[3*t][3*n+2]=u[1].add(e[3*t][3*n]),e[3*t][3*n+3]=u[2].add(e[3*t][3*n])):1===i?(e[3*t+1][3*n+3]=u[0].add(e[3*t][3*n+3]),e[3*t+2][3*n+3]=u[1].add(e[3*t][3*n+3]),e[3*t+3][3*n+3]=u[2].add(e[3*t][3*n+3])):2===i?(e[3*t+3][3*n+2]=u[0].add(e[3*t+3][3*n+3]),e[3*t+3][3*n+1]=u[1].add(e[3*t+3][3*n+3]),0===n&amp;&amp;(e[3*t+3][3*n+0]=u[2].add(e[3*t+3][3*n+3]))):(e[3*t+2][3*n]=u[0].add(e[3*t+3][3*n]),e[3*t+1][3*n]=u[1].add(e[3*t+3][3*n]));break;case&quot;C&quot;:0===i?(e[3*t][3*n+1]=u[0],e[3*t][3*n+2]=u[1],e[3*t][3*n+3]=u[2]):1===i?(e[3*t+1][3*n+3]=u[0],e[3*t+2][3*n+3]=u[1],e[3*t+3][3*n+3]=u[2]):2===i?(e[3*t+3][3*n+2]=u[0],e[3*t+3][3*n+1]=u[1],0===n&amp;&amp;(e[3*t+3][3*n+0]=u[2])):(e[3*t+2][3*n]=u[0],e[3*t+1][3*n]=u[1]);break;default:console.error(&quot;mesh.js: &quot;+c+&quot; invalid path type.&quot;)}if(0===t&amp;&amp;0===n||r&gt;0){let e=window.getComputedStyle(o[r]).stopColor.match(/^rgb\s*\(\s*(\d+)\s*,\s*(\d+)\s*,\s*(\d+)\s*\)$/i),a=window.getComputedStyle(o[r]).stopOpacity,h=255;a&amp;&amp;(h=Math.floor(255*a)),e&amp;&amp;(0===i?(s[t][n]=[],s[t][n][0]=Math.floor(e[1]),s[t][n][1]=Math.floor(e[2]),s[t][n][2]=Math.floor(e[3]),s[t][n][3]=h):1===i?(s[t][n+1]=[],s[t][n+1][0]=Math.floor(e[1]),s[t][n+1][1]=Math.floor(e[2]),s[t][n+1][2]=Math.floor(e[3]),s[t][n+1][3]=h):2===i?(s[t+1][n+1]=[],s[t+1][n+1][0]=Math.floor(e[1]),s[t+1][n+1][1]=Math.floor(e[2]),s[t+1][n+1][2]=Math.floor(e[3]),s[t+1][n+1][3]=h):3===i&amp;&amp;(s[t+1][n]=[],s[t+1][n][0]=Math.floor(e[1]),s[t+1][n][1]=Math.floor(e[2]),s[t+1][n][2]=Math.floor(e[3]),s[t+1][n][3]=h))}}e[3*t+1][3*n+1]=new x,e[3*t+1][3*n+2]=new x,e[3*t+2][3*n+1]=new x,e[3*t+2][3*n+2]=new x,e[3*t+1][3*n+1].x=(-4*e[3*t][3*n].x+6*(e[3*t][3*n+1].x+e[3*t+1][3*n].x)+-2*(e[3*t][3*n+3].x+e[3*t+3][3*n].x)+3*(e[3*t+3][3*n+1].x+e[3*t+1][3*n+3].x)+-1*e[3*t+3][3*n+3].x)/9,e[3*t+1][3*n+2].x=(-4*e[3*t][3*n+3].x+6*(e[3*t][3*n+2].x+e[3*t+1][3*n+3].x)+-2*(e[3*t][3*n].x+e[3*t+3][3*n+3].x)+3*(e[3*t+3][3*n+2].x+e[3*t+1][3*n].x)+-1*e[3*t+3][3*n].x)/9,e[3*t+2][3*n+1].x=(-4*e[3*t+3][3*n].x+6*(e[3*t+3][3*n+1].x+e[3*t+2][3*n].x)+-2*(e[3*t+3][3*n+3].x+e[3*t][3*n].x)+3*(e[3*t][3*n+1].x+e[3*t+2][3*n+3].x)+-1*e[3*t][3*n+3].x)/9,e[3*t+2][3*n+2].x=(-4*e[3*t+3][3*n+3].x+6*(e[3*t+3][3*n+2].x+e[3*t+2][3*n+3].x)+-2*(e[3*t+3][3*n].x+e[3*t][3*n+3].x)+3*(e[3*t][3*n+2].x+e[3*t+2][3*n].x)+-1*e[3*t][3*n].x)/9,e[3*t+1][3*n+1].y=(-4*e[3*t][3*n].y+6*(e[3*t][3*n+1].y+e[3*t+1][3*n].y)+-2*(e[3*t][3*n+3].y+e[3*t+3][3*n].y)+3*(e[3*t+3][3*n+1].y+e[3*t+1][3*n+3].y)+-1*e[3*t+3][3*n+3].y)/9,e[3*t+1][3*n+2].y=(-4*e[3*t][3*n+3].y+6*(e[3*t][3*n+2].y+e[3*t+1][3*n+3].y)+-2*(e[3*t][3*n].y+e[3*t+3][3*n+3].y)+3*(e[3*t+3][3*n+2].y+e[3*t+1][3*n].y)+-1*e[3*t+3][3*n].y)/9,e[3*t+2][3*n+1].y=(-4*e[3*t+3][3*n].y+6*(e[3*t+3][3*n+1].y+e[3*t+2][3*n].y)+-2*(e[3*t+3][3*n+3].y+e[3*t][3*n].y)+3*(e[3*t][3*n+1].y+e[3*t+2][3*n+3].y)+-1*e[3*t][3*n+3].y)/9,e[3*t+2][3*n+2].y=(-4*e[3*t+3][3*n+3].y+6*(e[3*t+3][3*n+2].y+e[3*t+2][3*n+3].y)+-2*(e[3*t+3][3*n].y+e[3*t][3*n+3].y)+3*(e[3*t][3*n+2].y+e[3*t+2][3*n].y)+-1*e[3*t][3*n].y)/9}}this.nodes=e,this.colors=s}paintMesh(t,e){let s=(this.nodes.length-1)/3,r=(this.nodes[0].length-1)/3;if(&quot;bilinear&quot;===this.type||s&lt;2||r&lt;2){let n;for(let o=0;o&lt;s;++o)for(let s=0;s&lt;r;++s){let r=[];for(let t=3*o,e=3*o+4;t&lt;e;++t)r.push(this.nodes[t].slice(3*s,3*s+4));let i=[];i.push(this.colors[o].slice(s,s+2)),i.push(this.colors[o+1].slice(s,s+2)),(n=new m(r,i)).paint(t,e)}}else{let n,o,a,h,l,d,u;const x=s,g=r;s++,r++;let w=new Array(s);for(let t=0;t&lt;s;++t){w[t]=new Array(r);for(let e=0;e&lt;r;++e)w[t][e]=[],w[t][e][0]=this.nodes[3*t][3*e],w[t][e][1]=this.colors[t][e]}for(let t=0;t&lt;s;++t)for(let e=0;e&lt;r;++e)0!==t&amp;&amp;t!==x&amp;&amp;(n=i(w[t-1][e][0],w[t][e][0]),o=i(w[t+1][e][0],w[t][e][0]),w[t][e][2]=c(w[t-1][e][1],w[t][e][1],w[t+1][e][1],n,o)),0!==e&amp;&amp;e!==g&amp;&amp;(n=i(w[t][e-1][0],w[t][e][0]),o=i(w[t][e+1][0],w[t][e][0]),w[t][e][3]=c(w[t][e-1][1],w[t][e][1],w[t][e+1][1],n,o));for(let t=0;t&lt;r;++t){w[0][t][2]=[],w[x][t][2]=[];for(let e=0;e&lt;4;++e)n=i(w[1][t][0],w[0][t][0]),o=i(w[x][t][0],w[x-1][t][0]),w[0][t][2][e]=n&gt;0?2*(w[1][t][1][e]-w[0][t][1][e])/n-w[1][t][2][e]:0,w[x][t][2][e]=o&gt;0?2*(w[x][t][1][e]-w[x-1][t][1][e])/o-w[x-1][t][2][e]:0}for(let t=0;t&lt;s;++t){w[t][0][3]=[],w[t][g][3]=[];for(let e=0;e&lt;4;++e)n=i(w[t][1][0],w[t][0][0]),o=i(w[t][g][0],w[t][g-1][0]),w[t][0][3][e]=n&gt;0?2*(w[t][1][1][e]-w[t][0][1][e])/n-w[t][1][3][e]:0,w[t][g][3][e]=o&gt;0?2*(w[t][g][1][e]-w[t][g-1][1][e])/o-w[t][g-1][3][e]:0}for(let s=0;s&lt;x;++s)for(let r=0;r&lt;g;++r){let n=i(w[s][r][0],w[s+1][r][0]),o=i(w[s][r+1][0],w[s+1][r+1][0]),c=i(w[s][r][0],w[s][r+1][0]),x=i(w[s+1][r][0],w[s+1][r+1][0]),g=[[],[],[],[]];for(let t=0;t&lt;4;++t){(d=[])[0]=w[s][r][1][t],d[1]=w[s+1][r][1][t],d[2]=w[s][r+1][1][t],d[3]=w[s+1][r+1][1][t],d[4]=w[s][r][2][t]*n,d[5]=w[s+1][r][2][t]*n,d[6]=w[s][r+1][2][t]*o,d[7]=w[s+1][r+1][2][t]*o,d[8]=w[s][r][3][t]*c,d[9]=w[s+1][r][3][t]*x,d[10]=w[s][r+1][3][t]*c,d[11]=w[s+1][r+1][3][t]*x,d[12]=0,d[13]=0,d[14]=0,d[15]=0,u=f(d);for(let e=0;e&lt;9;++e){g[t][e]=[];for(let s=0;s&lt;9;++s)g[t][e][s]=p(u,e/8,s/8),g[t][e][s]&gt;255?g[t][e][s]=255:g[t][e][s]&lt;0&amp;&amp;(g[t][e][s]=0)}}h=[];for(let t=3*s,e=3*s+4;t&lt;e;++t)h.push(this.nodes[t].slice(3*r,3*r+4));l=y(h);for(let s=0;s&lt;8;++s)for(let r=0;r&lt;8;++r)(a=new m(l[s][r],[[[g[0][s][r],g[1][s][r],g[2][s][r],g[3][s][r]],[g[0][s][r+1],g[1][s][r+1],g[2][s][r+1],g[3][s][r+1]]],[[g[0][s+1][r],g[1][s+1][r],g[2][s+1][r],g[3][s+1][r]],[g[0][s+1][r+1],g[1][s+1][r+1],g[2][s+1][r+1],g[3][s+1][r+1]]]])).paint(t,e)}}}transform(t){if(t instanceof x)for(let e=0,s=this.nodes.length;e&lt;s;++e)for(let s=0,r=this.nodes[0].length;s&lt;r;++s)this.nodes[e][s]=this.nodes[e][s].add(t);else if(t instanceof g)for(let e=0,s=this.nodes.length;e&lt;s;++e)for(let s=0,r=this.nodes[0].length;s&lt;r;++s)this.nodes[e][s]=this.nodes[e][s].transform(t)}scale(t){for(let e=0,s=this.nodes.length;e&lt;s;++e)for(let s=0,r=this.nodes[0].length;s&lt;r;++s)this.nodes[e][s]=this.nodes[e][s].scale(t)}}document.querySelectorAll(&quot;rect,circle,ellipse,path,text&quot;).forEach((r,n)=&gt;{let o=r.getAttribute(&quot;id&quot;);o||(o=&quot;patchjs_shape&quot;+n,r.setAttribute(&quot;id&quot;,o));const i=r.style.fill.match(/^url\(\s*&quot;?\s*#([^\s&quot;]+)&quot;?\s*\)/),a=r.style.stroke.match(/^url\(\s*&quot;?\s*#([^\s&quot;]+)&quot;?\s*\)/);if(i&amp;&amp;i[1]){const a=document.getElementById(i[1]);if(a&amp;&amp;&quot;meshgradient&quot;===a.nodeName){const i=r.getBBox();let l=document.createElementNS(s,&quot;canvas&quot;);d(l,{width:i.width,height:i.height});const c=l.getContext(&quot;2d&quot;);let u=c.createImageData(i.width,i.height);const f=new b(a);&quot;objectBoundingBox&quot;===a.getAttribute(&quot;gradientUnits&quot;)&amp;&amp;f.scale(new x(i.width,i.height));const p=a.getAttribute(&quot;gradientTransform&quot;);null!=p&amp;&amp;f.transform(h(p)),&quot;userSpaceOnUse&quot;===a.getAttribute(&quot;gradientUnits&quot;)&amp;&amp;f.transform(new x(-i.x,-i.y)),f.paintMesh(u.data,l.width),c.putImageData(u,0,0);const y=document.createElementNS(t,&quot;image&quot;);d(y,{width:i.width,height:i.height,x:i.x,y:i.y});let g=l.toDataURL();y.setAttributeNS(e,&quot;xlink:href&quot;,g),r.parentNode.insertBefore(y,r),r.style.fill=&quot;none&quot;;const w=document.createElementNS(t,&quot;use&quot;);w.setAttributeNS(e,&quot;xlink:href&quot;,&quot;#&quot;+o);const m=&quot;patchjs_clip&quot;+n,M=document.createElementNS(t,&quot;clipPath&quot;);M.setAttribute(&quot;id&quot;,m),M.appendChild(w),r.parentElement.insertBefore(M,r),y.setAttribute(&quot;clip-path&quot;,&quot;url(#&quot;+m+&quot;)&quot;),u=null,l=null,g=null}}if(a&amp;&amp;a[1]){const o=document.getElementById(a[1]);if(o&amp;&amp;&quot;meshgradient&quot;===o.nodeName){const i=parseFloat(r.style.strokeWidth.slice(0,-2))*(parseFloat(r.style.strokeMiterlimit)||parseFloat(r.getAttribute(&quot;stroke-miterlimit&quot;))||1),a=r.getBBox(),l=Math.trunc(a.width+i),c=Math.trunc(a.height+i),u=Math.trunc(a.x-i/2),f=Math.trunc(a.y-i/2);let p=document.createElementNS(s,&quot;canvas&quot;);d(p,{width:l,height:c});const y=p.getContext(&quot;2d&quot;);let g=y.createImageData(l,c);const w=new b(o);&quot;objectBoundingBox&quot;===o.getAttribute(&quot;gradientUnits&quot;)&amp;&amp;w.scale(new x(l,c));const m=o.getAttribute(&quot;gradientTransform&quot;);null!=m&amp;&amp;w.transform(h(m)),&quot;userSpaceOnUse&quot;===o.getAttribute(&quot;gradientUnits&quot;)&amp;&amp;w.transform(new x(-u,-f)),w.paintMesh(g.data,p.width),y.putImageData(g,0,0);const M=document.createElementNS(t,&quot;image&quot;);d(M,{width:l,height:c,x:0,y:0});let S=p.toDataURL();M.setAttributeNS(e,&quot;xlink:href&quot;,S);const k=&quot;pattern_clip&quot;+n,A=document.createElementNS(t,&quot;pattern&quot;);d(A,{id:k,patternUnits:&quot;userSpaceOnUse&quot;,width:l,height:c,x:u,y:f}),A.appendChild(M),o.parentNode.appendChild(A),r.style.stroke=&quot;url(#&quot;+k+&quot;)&quot;,g=null,p=null,S=null}}})}();
</script></svg>
